<mxfile host="app.diagrams.net" modified="2021-05-24T09:45:18.388Z" agent="5.0 (Windows NT 10.0; Win64; x64) AppleWebKit/537.36 (KHTML, like Gecko) Chrome/90.0.4430.212 Safari/537.36" etag="rOwR6AgXNJdmkioEY827" version="14.7.0" type="github">
  <diagram id="Qn1Douy_qMNl8UOC0wOR" name="Page-1">
    <mxGraphModel dx="1955" dy="1115" grid="1" gridSize="10" guides="1" tooltips="1" connect="1" arrows="1" fold="1" page="1" pageScale="1" pageWidth="1100" pageHeight="850" math="0" shadow="0">
      <root>
        <mxCell id="0" />
        <mxCell id="1" parent="0" />
        <mxCell id="Jl1QDGb4fc3AQuvFbjfJ-4" style="edgeStyle=orthogonalEdgeStyle;rounded=0;orthogonalLoop=1;jettySize=auto;html=1;exitX=1;exitY=0.5;exitDx=0;exitDy=0;" edge="1" parent="1" source="Jl1QDGb4fc3AQuvFbjfJ-1" target="Jl1QDGb4fc3AQuvFbjfJ-2">
          <mxGeometry relative="1" as="geometry" />
        </mxCell>
        <mxCell id="Jl1QDGb4fc3AQuvFbjfJ-1" value="" style="shape=image;verticalLabelPosition=bottom;verticalAlign=top;imageAspect=0;aspect=fixed;image=data:image/jpeg,/9j/4AAQSkZJRgABAQAAAQABAAD/2wCEAAkGBxESEhISExMSFRUTGRYZFRYXFxUXFxMYFhUWGRcYGBcYHigiHholHRcVITEtJikrLi4uGR8zODMsNygtLisBCgoKDg0OGxAQGzYlICYtLTArLS82Ly4tLy0tLS8tLS0uLS0uLS0vLy0uLS0tLS0tLS0tLS0tLS0tLS0tLS0tLf/AABEIAKkBKgMBIgACEQEDEQH/xAAcAAEAAgIDAQAAAAAAAAAAAAAABQYDBAECBwj/xABSEAABAwICAwcPCAgFAgcAAAABAAIRAwQSIQUGMRMiQVFhcbEHFBUWMjRSc4GRkpOh0dIXI0JTVGJy0zM1VYOissHCQ4KUs+FjoyQllaTj8PH/xAAaAQACAwEBAAAAAAAAAAAAAAAAAwECBAUG/8QAOhEAAQMBBQQHBwQBBQEAAAAAAQACEQMEEiExURMUQXEzUmGRocHwBSIygbHR4RVCkvFiBjRyorIj/9oADAMBAAIRAxEAPwC9IiLtLzaIiIQiIiEIiIhCIiIQiIiEIiw3LyGkjblHlIC1adeqZgbPvN4Z+7yIJhSBKkEWG2cS0F22SD5HEf0WZChEREIRERCEREQhEREIRERCERF1e4AZ+bhzyAUOcGiSpa0uIAzK7IsO6E5BpH4hA9hjzFBW2S14mJMQATtz4RzTHClGuwZ/jt7uOmM5GNG6VeGJ0BE4zHOY92M5b1mzmRET1mRERQhEREIRERCEREQhFw9wAJJgASTxAbSuViuaDajHMeJa8EOEkSDtzCELQ7NU3Boo/OvdsYN6W7JNTEJY0SNo4RAK77ldnPdaDfuik9wHO41AT5gsOgrYNNd2JznGoW4nGXYaYDWieTPzqXUCVd0AwFB6Mv7h1bBUaPplwwObuYaQGFrySHh+2ODPPKFOIikKpMoiIhQuCtCu97XUW4jvyA45cbdmXKVILRu6bt0okNJDXAuMcrZ6CsVvDtlLCZluU5X2zl2TPZOpXS9lFm3u1AC0h03g043HXfi/yIiMzGBMLO9hwuG3MEbAYBaY4BwFYXUAXSabogRBaOEzsdzLcXK2BobgueahdifDDwGHcFhtmYWxEZuy2wC4kdKzIilVRY69TC1ztuEExxwJWRa99+iqfgf/AClCFVdGa13tek2rTs7fA+Ym7Y05Eg5FkjMFcaT1rvbematSzoYWwDhumuO+IAyDJOZC6ak6Asqlhb1KtvbucWOc572NJMPdmSRxBTXa3o8gEWdvmQP0LADOwiRsiT5EovAzOPr12rUKcuMMwmOIHfega48JPBV+215uqlJtVtnSwOqCmJuWg4nEAZFkgSRn/RTmrmsFS4rXFCrRbSfQFMnDVFUHGCdoaBsA86yt1b0dmOs7aRtBpMBjj2ZhROq9rTpaS0lTpMaxjW20NaAGiWOJgDZmSfKpa6cQZCh7QAQWwYnjqNTpxyPBXFERMWZERYLu6ZSY6o9wa1u0+WBs4ZhCFnWB++dBxAQCcsjBzz4drR51AVtc7dr6jYc4NjC5ue6HhgGIj2qbpXLXRUBLmlrdhBwh0EggHL6JSK5BbjlOOeXGY/rXBbLM1zXGB70e7lN6RF2eM/OJu+9CyySTAETExJnk4h/9522WnbkRHBnAOewgjo5kIMmC0iZiYM8nJ/z5ExvjtgARw5yBJ4ST0Khn908ZziMflpEY643lLYw2UftuRF69hp72cze9zq/sXNCc5JMEiSInZOXPPmWVYqDTnPC4nbMdzPtk+VZU2jNwT56nXHvx1xlItF3aG5EcIjTsw53fdmbuCIiJqSiIiEIiIhCIiIQiIiEKKNUW9V+PKlWIcHnuadSA0tceAOhpB2TiHCJ3bO8p1W4qb2uHIdnIRtB512urdtRjqbpwvBaYMGDtzCwaPsBSxnE57nkS5waDha0Brd6AIAng4SoxCsYI7VmvLhtNj6jpwsBcY2wOJQPbra8Vb0W/EpPWHvW48W/oUZqLom3q2xdUo03u3RwlzQTADYCx2u0uoxC12Wgyo0l05+SdutrxVvRb8SdutrxVvRb8SuVXV+wYxjusKby4CcFJpIy2lYexNh+yz6lqyO9pXcD9CulT9ktqNvNBjmFU+3W14q3ot+JO3W14q3ot+JWzsTYfss+panYmw/ZZ9S1R+qDXwP2V/wBF7P8AsFU+3W14q3ot+JO3W14q3ot+JTet9pZWtmbhlhRDyWhofQDg3fZ7oARAIBAM7S1QTdCOsK9qLqlZVqVy4sIwtG5Oc9ricWAl2EEhvBnGWRWlloqOEiMcljfY6LXFpnDPFdu3W14q3ot+JO3W14q3ot+JXp2pOjiSetqeZmACBsiIHBw8+ajLrVexY/ALalADRm0EnIbSdpSqltcwT6+ql1iojXv/AAofRGnqNy5zaYfLRJxADKY4CVIXjSadQDMlrgBx70qmahiLi4HE3+9XldCi8vZJXPtNMU6ha3LBUXVHTwt7OhRqWt+H0wQ6LaqRm5xyMcRClBrRSBkWukBtMC0qxPHEbferMisWAxPDJU2pxjCc/nPDjmVDaK01TrOLG0LlhgumrRfSa6IEY3DM59Kyuv34izC7uhAI32GCSPZkpJwnJatPR7ASY2uxAjLDGwTM/wD6sVqpVzcFAwBM8MNMjj28CAbpxXRsNosrb7rULxMRILscMZLhhqMyJAe2QtlhMCRnw8Mci7rqF2W8YBcs+vWffJ1JRVzXqo9tvvX4QXBrmxnUB4AeCIJ5YVjXSrSa4Q5ocOIgEeYqSJClpggqpaPo2HWUu3KcG/JjdBUjMD6UzsHMu2oNJxovDqZDXOBD5jERlAHBhImeXkXcaj0ZYd0eQHS8EDftnuRhjCeX2KxWNlToswU24WyTEk5kycyl3JwcME41I+EmZnlGP1Xfc3bQ48zjl7BA8gRtLZLnnZImQTw5cXNE8MrMirsGcfX9xjrjqZne6vAx2gAHjGPCJwiIgR8LYIiJyzIiErDbXDKjQ9jg5rthBkFCFmREQhEREIREXBICELlFguarm4TEt+keFvLzcaytM5jYVRtVrnFvEefHl26ghMdSc1jahydMHtGYOh4weBB44dkRFdLUbrD3rceLf0LB1Ou9D4x/Q1Z9Ye9bjxb+hYep13ofGP6Grk+08gulYujdz8lealIbmxzy9wgQ0MY+JHAMBXFChTeYAeMpl1FjR5zTAlSNr3DPwjoChtL2LMQIaJdiLjhxScuN4j2qtMNcIcPnA/tbKr6lMXmH5SR4qQ7GM4/4KPwLtTsQ3uXObzNpDoYtW0u3hhJbUfBAAYxjSBHFjIjy+RbVG9Lp+aqtjwgzPmhxVDDXRAnsA+sJ7L1Snf4dpx7pK1dMaDZdUnUarnuadmTN66DDhDRmJUDozUQUarKzrm4rOogbgHuEU94Q4b4OGEk5AARA27VaKt2WidyquziAGzw55uGXvXVl+4gncawiO6DBtPBv1bakG7Kg0fdvnIdvlMqH0RWun1XNqOqBo3STgbDXh8BrXkZtw57B7tm+aRUIJLtmZidnIAFJ0LouMGlUblMuDY5sic1G6T/SnydAWSswsp3SZ9evwFNorNrG+1sdg9eu04ry3UXvi45j/OrwqLqTUAuLjmP86k9La72tu80zje5vdCmAcJ4iXECeZdug5raQLj6lce1U3PrkNE4D6KzoqT8pllsLbjzUfzFlHVFtPq7n0aX5qbtqfWCRu9XqlXFFT/lFtPq7n0aX5ifKLafV3Po0vzFG3p9YI3er1Srgip/yi2n1dz6NL8xPlFtPq7n0aX5iNvT6wRu9XqlXBFT/AJRbT6u59Gl+Ynyi2n1dz6NL8xG3p9YI3er1Srgip/yi2n1dz6NL8xPlFtPq7n0aX5iNvT6wRu9XqlXBFT/lFtPq7n0aX5i5Z1RLMkAsuByljIHmqE+xG3p9YI3er1Sreiw2tyyoxtRjg5rhLSNhCzJqSo/Sgud6aG5nug5r5G0b1wdnsPBGar2gry5pU3uFJtSkyo81HNJxPJccTqTYAwiNkf8AFxUHd6IqtdUdbVRSFWd0aQSA76ynGx/SqkHNMY4RB9dylrW4ZUY17CHNcJB41mVV1SN1uVEt3LcZIw/Tw5k1MQJ32InI+xWpSDIVXNgwiIilVRV7WyxNw62o5gPdUJdEhuGmSCfKrCigiRCs110yFXtWKFFu6M3MUq7AGVWYnFrhwPYHEjCeTmW5WuBSxAEEEHCQQSxx+iTxcS50xo9z8NWkQ2vS7g8Dxw038bT7CtulRa5rS+mxriAXNwtOEkZiRtWS1UKlRsUyA4TB58uB49sEYgLo2K1UaTia4LmkglojNuIOPEHI6XmukFZmbBzDoXdEWwCFzCZMqN1h71uPFv6Fh6nXeh8Y/oas2sPetx4t/QsPU670PjH9DVyfaeQXSsXRu5+S9Jte4Z+EdAWhpiiHYMwIna2m7i8MH2Lfte4Z+EdAWnpXHvMM8Mw1zuLwXtj2pdOcIW6oGlnvDD1yWnau3NpAcMzMjcW8GyAIWfrx31ntpe5c2FIvDseOQcsqjPZjMre6zZ9703+9WdM4opXbou5eua0OvHfWe2l7k68d9Z7aXuW/1mz73pv96dZs+96b/eqpiw2NcuJBdOXGw/yqK05Vw1HeToCsaqOtLoe7mHQEi0fAqvyXjmiNKilUruJgQZ8jpXn97dmo5ziTDiT5yTJ5VM13nFWHHI85Vn1O6nFC8s2XD61Vr3ueIZgwtDHlsEESTvSdvCE6tWbTpguy+6tSpFz3Xc8F5rKsWpulqdGu1tahTr0qha0tfi3kmA5haRG3MbCPOvSLTqRWTSDUq3FQD6MsYDyGGz5iFh6omp1tTt6D7aiyk6nWptJYMyyo4N3x2kh2CCZ4eNZBbabnBonHitD7M9rC44QFN9Y2H2C289T4lz1lYfYLfz1PiWgXSuzahHCki0P1Xnd7qdZbvWVh9gt/PU+JcdY2H7Pt/PU+JahrO410Lp4Ubw/VTvb+st7rGw/Z9v56nxLnrKw+wW/nqfEtAOPGV2FV3GjeH6qN7qdZbvWVh9gt/PU+JcdY2H7Pt/PU+JaZqnjK6lx4yjeH6o3up1lM6J0Ro6tWZSNjbjFi2GpOTHO8LkWTXLVCwo2NzVp27GvYwlrgXSDIzzKw6od+Uf3n+09WLqgfq688WekLXZ3lzZOq6FkqOqMJcePkFT+psf8AwZ5Kj45Nh6SValVOpr3n+8f0NVrXdo9G3kuXaOldzKIiJiSsVCgxgIY1rQSXEARJO086yoiEIiIhCIiIQiIiEIiIhCjdYe9bjxb+hYep13ofGP6GrNrD3rceLf0LD1Ou9D4x/Q1cn2nkF0rF0bufkvSbXuGfhHQFB6QtWtcXPZb78kgndJPPA25qcte4Z+EdAWnpVwGHNozO2q+kNnG3aq0XQQtVpYHMx4aiVF3IpPl4bbuaIBJbVJBiAMhsyXFnVpNdiIoDIiW0685jlGxbLK4DHkPonuM3XT4zna8gkckbfIsfX3/Utf8AWP8AhWWsxjKmhzyk+BXYsb69azgRIywMDuM/bRd23FIkAblJIA+aq7Ss5YwZfM+g/wB65FQQ04275oP6eoRnxGMxypug8Nnr6nuTmzEn14lYn3ZhojmZ8h5qUpCABlkBs2eRVfWhkvdzDoCnbFwJO+B2bKjn/wA2xRWnmS93k6Eq0fClPyXzZWp7+r5f5l63qnbVq1KkLN1Oiw0adVjXGmGEultQYBSc4lr2y6Ht/SN4ZXmzaEvreX+ZTfUfvmPfcWVVrXt/S0mvAcGkHDUieOWHyFFraNmHkSBw9afhNszv/oWgxMY+tV6M+4u90NthoNrSG7tjJt8RZjwhv6TdMOcERH0jsPS4sa1KrRpPuGVZJqVSXAYBTgsyADRNRzOAZMO3MqSZZ0gzcxTphngBrQ30YhaOkmMpsDGNa0OOxoAGWcwOWFz7O2lXqCiGxeMTJwGZPMALbXc+iw1S74RlqeHeYWOnQuZE9j4nPKhMcP0V13C749HejQ9y1wsdSqAvb7vTJ+Bv8QvIbaOJ/kVvOt7vAHf+XRJBcW0MM7QAY2wumG5jutGzn9n2ZR/VTuqzmOt3Y2uIFXYJJnC3PJSzaNAmNyf5n+9cuvWZSqFlxmH+IXQpUWvYHXnY9pVPtqN057Wzo50nY0W5ceYRtUr2Huvqrb1dH4VPhtKm7KmZyzwl3mJ51sMuwSBhfnwlpA86QbU2fgb/ABCbures7vVPr0Hsdhd1k13E4UAc+QrHnx2H/tlr68Pi4eeJrT5mqjaM0iQ4h5kOOZPAePmVtsOo3+IXes/+nqdWkKm0dkDmPsvTtDTuzM7T6X6PcMfcO2Yc/NwSnVA/V154s9IVb1Kv2vvGN2H5yPvDc3e2FZOqB+rrzxZ6QlPdeMwByELLbLALE8UwSZE493kqd1Nu8/3r+hqtaqnU27z/AHr/AO1WtdSj0Y5Ly9o6V3NERExJRFwCuUIRERCEREQhYRcNJLQZLZxRmGxwE7AeTau1vUxNa6IxCY4QDsnliFrusAGljXFrCILNrQJGIN4RIkbYE5BZKtN5JiphnZvQY3pHTB8kIVsOC7NrtLi2d8OAyCRxido5Rksy1zbAuDnEugy0HJrTxgDaeUzyQthAUFRusPetx4t/QsPU670PjH9DVm1h71uPFv6Fh6nXeh8Y/oauT7TyC6Ni6N3PyXpNr3DPwjoC1dJMcQ2G1Dn9A0xwcOP+i2rXuGfhHQFCX1BrXFz20mh2wmvVaT6IgcGxVoiYWuu4hnoeRWdlJ+Fww3Ikt+lQxHMzhMxzzyQsfW9XivPTtvesN0WPl4NAtEDEa9ZuccTRHAeeFxZ16TXyXW4EESK9VxzHE4QslZ0vh2Hh4ELsWOm5tnmmL/HIH5SHeU9ilMD4blU7kTv2Ag8sZTzZLnc6nFV9Ni0W3dIkAVKBJIAGN2ZOxdrioxsyaOX33p7XAjAysNRjmn3hHyhSFB5bOLF/mc09Cr2nr9oqOz4ugLV01rAKYiRkOArzfSumqlao6SQPowe6A4+X/hD6RqCAk1CIUBaFxfWIGTpAPB3S29RaNO3vg0u31Vjmh/gvcWubHJvY5SVkUZdWxfWyJbABxDgzMRyyE6pSD6ZYeII71RlQsffC9j7JObvXU34vu5tdzFVfXbST6At34vnHVCS3g3MNILfO5vl5lL6qaUdXt8VQtx0yWPIO3DscRwSM159rTUdc1atXFiDSW0gO53NrjEDjObp4Z5lxrBReLTpcz5+u8Lq2ys00MP3ZcvXirNR041wg708v9CtgOlVNZad46nmCebbPJC9dStxGDh8x9v6Xl6tinFp7/uvVtWGzavyn508E/Qb913Qp7RtLuzEZR3IEz+7aeDlVZ1ArurWboaMQq75ozA3jcxJGSslrb1Gu7iAQQcm7PTPDC41tdetLntxH4W+ztLabQRkF2qWwqVHA5ZAzhaeAeEz+pWyyzLRDajgBwAUwB/CsVS2eamIQNkOIB4APC/otyi1wG+cHHkGH+pSWtxMj5+vytAAleZdUQuNy9oO1jR52qhtbnzK+9UDvt34WdCqN3R+kPL704ZL3vs4jYUx2D6KW1A/WFDmq/wC1UV56oH6uvPFnpCo2oH6woc1X/aqK89UD9XXniz0hC4X+of8AcM/4D/05U7qbd5/vX/2q1qqdTbvP96/+1Wtdaj0Y5Lwdo6V3Nad7fCmWNgufUnA3IAxEy52Q28+2AVxuz6bKlSsW70F2FgMNAGwOObieYcGS2a1Jr2lrmhzTtBAIPkK1XaNEBoe/AHtcWuJdkzMNDjmBiwnMnuYylXSxELHbW1ZlNmEsL986q10w97zidDxm2CSBkclnsb5tXEACHMMPaYOE/iaSD5Dzwu11aCpGJz8ImWgwH7O6jMjkmDOYKzU6bWgNaA0DYAAAOYBEQgkEdq7oiKVVEREIRERCEREQhRusPetx4t/QsPU670PjH9DVm1h71uPFv6Fg6nXeh8Y/oauT7TyC6Vi6N3PyXpVr3DPwjoC0NM1cOHfATO2tuXFyGf6Lfte4Z+EdAWppSrhw5VDM9w2oeLbgB9qUxwbBK6DqbqguNzPzWjRu4Y442d00S+5y2Exiw5HkjPyLr2Q/6tv/AKv/AONdmXBcQ3DXEnhZXA8pLIC5dXIJEVcjwNrEZcRDVU3qrppuw71opmnZmBtdknUkt8IhdzVqTBLG5if/ABBJA5tzUXp6+wtMP/7w9ynjbVI7r+N/uVO1tD2tO+/id7lYAjMz65Kj3AnBoHKfMlefaZv8dXCHE8JznYtCqMp4s/Nt9kqQ1Z0W25uK2NzgGNHcnMlzuMg8RVodqhbkEYq2f3mfCmNe0BJdTc4yFS1wrt2pW/hVvSZ8KdqVv4Vb0m/CrbRqrsXqk7q5uQJAfvXAHuhBMHjEorq7VC3Mb6tkZ7pnwrntSt/Crek34UbRqNi9UldCJd+Ee0yJ9ntKvPalb+FW9JvwrgaoW8k4q2cfSZwf5eVG0ajYvXHUw0ruVarTOyowHa0b5h+8QNjj5l6C7SDpMPAHAPmsv415Vpm0qWL6VSzfU3V2MM3rajichDW4SHEh0RB5Fr9sWsngXv8AoW/kJFVpcZBhSGkYHgvXeyLvDH/a+Nd6VzVdJaS6OJtI9FReP9sWsngXv+hb+Qg1j1l8C9/0I/ISxTdxcrXe1WXX/vt34Wfyqtkci1q2l9PvOJ1C5ceN2jmE+c0F17Iae+z3H/ptP8hOXoaHtllOk1hYcABn+FN6jUi3SNHLgqx6qorr1QP1deeLPSF5ezSengQ5tC5a4TBGjmAiRBgihxLi/wBI6fr030qtK+cx4hzesyJHFLaQPmKFg9o20WuoHgRAjXiTPirB1Nu8/wB6/wDtVrVb1Cs6tK1wVadSk7G84ajHMdBiDhcAYyKsi61HoxyXkbR0ruaIiJiSiIiEIiIhCIiIQiIiELD1wzHgxDFE4eGONH3DACS5sDbnszjpkLSxxUuDvhDaWbQCRk/MA5FaWrWMklxqZU6YIc1oEwXkSBP+JlxgqJV7uErc07UDrSu5pBDqTiCNhBbIIVR1e1tNpS3IUQ/fF048O0DKMJ4lcdBtBtbcEAg0acg5g7xvAtjrGj9VS9BvuWa0WbbRK0ULQKQLSJxUTS6rD2tDetG5AD9MeAeLXf5XHfZG+uP5ak+saP1VL0G+5OsaP1VL0G+5L3M6rR+oDq+KjPlcd9jb64/lp8rjvsbfXH8tc6y2VLrWvDGNOAwQ1oI5jC8r61+85IrUjTMErVZ6+1BIEL1J/VbdHebfXn8tVLWPqiOrAjrcN/ez/YF01Itm7rVxb/5s5OAIG/bnmtfWsMEwxg5mhSKMtvSodXu1LkKU6l1c1DXqERiiM5yBjplX1UvqdMDcQHgN9pk+0q6JLhBWumZbKIiiNYL+tSwYGwx07pWwmpuIyg7m3MznnsEZqqupdFH16zjd0qYJDWU6lR4ByJLmspg8f+IfIsGh7+tUqVWObipsJwVsJp4iHRgwu7qPCGRhCJUuiIhCrWuVYsdbPG1jnOHO0sI6FL691dMvuLZ+ji80HMY5pZgw7oXEndcX0MJZyd1wqD15/wAD/P8A2K8ajtLrG3Ly6YcBvnDete4MynwQEz9oWcn3yFa2zw7V2UfuA43em/3qF0lUc2o4BzgMo3zuIcqtSp7QxKXXrCk28RKtSKm9c1PCd5z7065qeE7zn3rRuZ1WX9Qb1VckVN65qeE7zn3rHcXxY0uc8gZD6RmTAEDaSTCNzOqP1BvVK3tOPDqpgzAAPOJ960FpvvCC0bm/E7EWt3k4WxLjLoAlwG2cxyxjqaVY2S4ODAXjHlhJphxeIBn6D+DPCeMTsaA1oC57yXuLozUgiiTpUte8VGlgDaWFriwHE81Zl2LDEM4TwHknZZpFpYKhDhTIMvyIaQSCHQTlI2iRyqZCrdK3URFKqiIiEIiIhCIiIQtTrTfvfiyqNDXNgQYBG3bwlZOtwA4M3hdBJicwGt2H7rQPIs6q2tWt9O2mnTipW4vo0/xxw8g8sKCQ0SVdrXPMBTTa1G2p0qb6rGBrQ1uNzWlwYAJzPMuOzlp9ptvWs968XvbypWealRxe920noHEOQLAs+8HgFr3Sczivb+zlp9ptvW0/eoerr3ZgkDdXRwhrYPKJcDHkXlCKpruOSs2yMGePgvSNMa6WtWhVptFbE9pAkNAk8e+VK64bx9CjESKkvMlaqQFIQ0K0av6ZpUHvc/GQ5mEYQCZxA8JHEtDT2l6VUnCKvoj+hUMikSG3VDmgvv8AFX7qYXIfugzBa1oIORicj5lfV5n1OL6lSq1t1qMp4mNwl7g0GHZiTlOavvZy0+023rafxLO8GVspEXVvotDs5afabb1tP4k7OWn2m29bT+JVgpl4ardFNsl0DEQATAkgTAJ4hJ85XZaHZy0+023rafxJ2ctPtNt62n8SIKLw1W+i0Ozlp9ptvW0/iTs5afabb1tP4kQUXhqojXCm177ZjqlOniLxjqOa1rRvJJJPAr1o7TejaVJlJt7aYWNDR89S2ARnvtq8k6pOkKNU24pVadTDumLA5rsM4IktPIfMqWmtbLVmc+HmF9L9suj/ALdZ+upfEo6/0rYVHYhf2YyA/TU+X7y+eUV2AsMgpVSKguuGC9zutL2bDAvLV+UyKtOObasPZ+0+023rWe9eJItAruAxWR1kaTIML23s/afabb1rPeuHadsyINxbEHaN0p5+1eJop3g6Ku5t1XsbtIWGUXVFuGcJbcNGEEAEDfZNyGWzILf7HUjnGIHEcJJLJqAhxA2SQ53pHjK8NVx1K1t3CKFc/NbGPP8Ahch+50c2yzKwJghRUs7gJaZXoI0bTzO/Ljh3xe4uGDFhgzlGJ3PJmZKzdbNlpMuLdmIkxywcsXLtWYFcrRCxyUREQoRERCEREQhFw9wAJJAAzJOQAHCSuVXOqB3jW/yfztUOMAlWY284N1Ve1q14LppWpIGx1bhPJT4h97zcaohRFhc4uMldWnTawQ1FyiKquiIiEIiIhCLhcrhCFIaG0xVtXOdTDDiEEPbiG2RwjNS/bzdeBb+rPxKsrgqIB4Kwc4YAqz9vN14Fv6s/EnbzdeBb+rPxKsIoujRTtH6qz9vN14Fv6s/EnbzdeBb+rPxKsIi6NEbR+qs/bzdeBb+rPxJ283XgW/qz8SrCIujRG0fqpLTWnKt0WboKYwTAY3CN9EzmZ2BRy4RSBCqSTmuURFKhEREIRERCFwi5XCEK5ak627iW29c/NHJjz/hch+50c2z00LwFe06q952viaf8oWmg8n3SsNqpgQ4cVKoiLQsaIiIQv//Z" vertex="1" parent="1">
          <mxGeometry x="20" y="170" width="105.8" height="60" as="geometry" />
        </mxCell>
        <mxCell id="Jl1QDGb4fc3AQuvFbjfJ-2" value="Open Source Repo" style="shape=cylinder3;whiteSpace=wrap;html=1;boundedLbl=1;backgroundOutline=1;size=15;strokeColor=#6666FF;" vertex="1" parent="1">
          <mxGeometry x="170" y="160" width="70" height="80" as="geometry" />
        </mxCell>
        <mxCell id="Jl1QDGb4fc3AQuvFbjfJ-5" value="" style="rounded=1;whiteSpace=wrap;html=1;strokeColor=#6666FF;" vertex="1" parent="1">
          <mxGeometry x="290" y="30" width="610" height="370" as="geometry" />
        </mxCell>
        <mxCell id="Jl1QDGb4fc3AQuvFbjfJ-6" value="Pre-trunk Testing" style="text;html=1;strokeColor=none;fillColor=none;align=center;verticalAlign=middle;whiteSpace=wrap;rounded=0;fontSize=16;" vertex="1" parent="1">
          <mxGeometry x="525" y="40" width="145" height="20" as="geometry" />
        </mxCell>
        <mxCell id="Jl1QDGb4fc3AQuvFbjfJ-7" value="" style="rounded=0;whiteSpace=wrap;html=1;strokeColor=#6c8ebf;fillColor=#dae8fc;" vertex="1" parent="1">
          <mxGeometry x="330" y="70" width="300" height="70" as="geometry" />
        </mxCell>
        <mxCell id="Jl1QDGb4fc3AQuvFbjfJ-8" value="Code Review By Reviwer" style="text;html=1;strokeColor=none;fillColor=none;align=center;verticalAlign=middle;whiteSpace=wrap;rounded=0;" vertex="1" parent="1">
          <mxGeometry x="394" y="70" width="170" height="20" as="geometry" />
        </mxCell>
        <mxCell id="Jl1QDGb4fc3AQuvFbjfJ-11" value="" style="rounded=0;whiteSpace=wrap;html=1;strokeColor=#666666;fillColor=#f5f5f5;fontColor=#333333;" vertex="1" parent="1">
          <mxGeometry x="403" y="92" width="147" height="40" as="geometry" />
        </mxCell>
        <mxCell id="Jl1QDGb4fc3AQuvFbjfJ-12" value="Gerrit Code Review" style="text;html=1;strokeColor=none;fillColor=none;align=center;verticalAlign=middle;whiteSpace=wrap;rounded=0;" vertex="1" parent="1">
          <mxGeometry x="403" y="103.46" width="80" height="20" as="geometry" />
        </mxCell>
        <mxCell id="Jl1QDGb4fc3AQuvFbjfJ-13" value="" style="shape=image;verticalLabelPosition=bottom;verticalAlign=top;imageAspect=0;aspect=fixed;image=data:image/png,iVBORw0KGgoAAAANSUhEUgAAAOkAAADYCAMAAAA5zzTZAAACE1BMVEX///8AAIAAAP8AAP7//wD/ZgD/AAAAAAAAAIP/aAAAAH8AAHoAAPkAAHf8/Pz4+PgAAHEAAEsAAFoAAG0AAD0AAOIAAOwAAGYAAEIAAFQAAOcAAF7y8vEAAEcAAPUAfgAAAJkAALfy8gBnZ2fc3Nx4eHgAAMgAANYAAFHS0tEAADIAAEqTk5MAAKwAAEUAAGIAAMEAADcAACOzswAAACwAAJ6JiYcAAI8AAMYAAKWhAADf3wDKygC+vgCYmACLiwB7ewDFxcUAAB3tAADbAABubgC8SwDS0gDr6wCkpABWVla9vb2urq5ra2t/f3+0AACZAABOTldPAABQUADtXwA1NTtfXwBCQkL+3t7+Ojqjo6EnJ1A8PDYVFWEAABSFhXkjIy4wAABlAACJAAB1AABCAADaVwBsKwB1dX+AMwBaJB9cJQCWPABbW0GnPgBtRDVLS2X/wsL+aWn+f3//lJT/V1f+MzP+0tL/IiI2NlIsLGhcXHA9PW9iYlcmJiUtLU48PEqx1bF5s3nR59FnrGedzJ0ojChImkh4tngcHE2pz6kmJhEdkh3M48wbG2EZGSouAENAACJDAEEgADMADwAYHQA7ABsZGUAqMgBZAB8nAABSADZ5ABkAGwAuACdBQSFUVB8oEwA0RgAzFTRBGgpCGzo+GSM6OgppKhphTEVxQS1cOQBkGwBAGhpPTz5lZTxubjGfu10FAAAZPklEQVR4nOVdi18aZ7rG8cKE2yB35ZOCDCBmCIgIMV4xXpkBS4zSHZNo08TqNrrp2bPbNQmRbrbt5nQ39uy2a3vObpPuZtvT7KnJn3i+meE2w4CiIDjnye8XYGrJPL7393u/b2SyBsIVwzWN/PfPDFEn6QyDRt/FGQA4ozJAxMhG30f9QRCM6uIxF97oO6kzojFOcTVUjJK0CuOpvCjxBNRjyQJk7fPDD+FfGjIVbuzt1A94jGJf3/lZx7+9w7wJp0isoXdUJ+BOmg2kml92dHT8O/s2Gk9I0DN5UySXMXwIif7sHe4iDDiSc0x0zMu9eQcS7fgwexVILrICIp5VU2ikHR2/zF12EQ27pfoAxHMJ4Du/gkR/ldPYcEJiHglP0dmkHjAS/dlH2euUU1pGqommcjnCO78uJkpKzBtp8r5IJvvoNx0dv8kR9RauSwPhRJHkPur4dc7t4rFzlg1qMABw3Ov1RiG8XhzHAe6N0uHNZGZ3bxUitJvcTNCkFwcAGutH2UAqw5fPE1EMJykiEXfGXYlEIhwmwvEbcvmt1ZuKiH3Y4fZ4jAw8HnfANxRB1Q8ehikSzwoYP0+BFBDOGBRWFEqRjRWAXHM+ijjcRlMrIgJVtyfgizxyrlH4+SIKiBSBg3xHSEPGdvWXTTZRkgjSCsG+qkxudDUZTlGNvPdqACtpohD0MW/4mdpd4JQF88lm9LgdQxGF1mw2a5WRIajU3TbjsPYR4T0XIQaE44UIoYmu6X1GMUkafRF11yVLT59OZ/X7/VarrqvTYukzo8OByw61k2j+OgY4iwSKp5+5bXxhsopqsusMl6x6rVLRghbQolCqteY+S6dWsf74cbzJ/S8osjIQ7rwsYpbG4Z5bl7SQYosYIGN1MA1krqBhj2xiJQbxHFHMSz2MmDhu+b8gPHbLJbNCnCVHVWtgcnsN/UCtf9i8ciWy7R+Mjt8IBkqdra3lUp+2jDSzRM1BmlP/aKbL/7RZKzcvl5djdCocPjCVhk3HQKeyAksIRddy3p9hMXloytWUtZuGYHWXdCYAddPE80OMJzKqQ9pK4mQ1Nw5khaUZYn1K3pTLF8AJYwNGwPQ82lkaWtx9fcojiPoPoOZ+/Ns/st/25BMgi64PGOJNWNZ4XRoZcLmADM8YS2KLo99cWXFRpWUZl4HfvfXWp5/AL/vk07c++6MMTxqs60TTiZWgmXAKZZt0l0h0KHiE5ir860wkBr99C+J3H3/KvPweQBU50PesR5tssdEZ1bhojUwTtguSPyjRI4iiWktuheLjz97i8OnHjDfSkOtW80ATiVWDYSBFhhPwLaW3CSV6OaSuGFrQrmCByxOO6m+fZD97kz3qnlij00NYa5OEM/X48ePlVCoWiy07SbLUG3ku6SsRVej7nQUi4PecSD97kr8SPlD6bzWwltPgUeLh01ty+bIzTJPsreJOJao05tKinO6qzF2VNFd/KVaUQn78B0ZxWbH+R07MmviUVh1qlAZjZOI+ah6wPKSj+WbB2ue3Sn0RgvhCivKKq7asFy+XPmGIfvbHJ5+wCsymDTjtysDMSm2JN4IqIDJWB2p5SIJ8DgPoPd+QfB8tyY1M/eqyRJU9whgCfveHT6Cn1UDvC12vDJDO9Yt6NrNSdJ59axQn+uyX7bHiIhJQeyh0RJ5nn9+IeFQ8pi19ZcoWhbknJaKSuU73ExlOxoMD/pbc/47qMmebRWD0o2HP0CO66B4xMo56WPPsRpPphy2O7iJ31CMqUlSpM8SoCh4VJxMZi05dXA+g1sxZ+iU8HTG5+8I479Izd06OqsvLa1HXRa0jd2G4U4QmzHCnnNHyygh/dSmDX1tS3pn3z6yQw2iLx4TyohsIXwywvpb5A8VqQ5M4FnWlHtg93SaVSceLMFBESrW+cz1Gl6WJgWhsqt+vEKvuUPXUGTXUQEJtDOzSRaUUTq/a+XYJEwUrNGFNlF5zPlKgUzqzVq1kvK9CodSadX2GjIsua2+wgnftDeiU5YpYVHtAnwnRNbuxpVigGB2zs/GztTUnUyaWmoYyzP1oAO6lCFcyEwqG+vv7Q6HgfjJBRfGyNaeXiGcu+rUtlfIMbegMpIrHfIHVIoFqqExLNyIKE5rMjWQwiSJgFi1wADCsbK6ORROp/T6tsiJNBspg3amCjD1SnLaR95UecZ6sz9Unj93yAlBnD0JHNF4KtlpvqYK4/mYh/GlIJ5pPiFpzHqnwAr2wWxE/zrQYThHO1YvWyjrLV+CDulLFwlN7BRcPA4tH6IhKoHKbD6nKjSAvrA8GdHr18WkyUtVP1TOFIOTx/HsQtrCBxWQMKL/4z7t3v/1CGTCaVLlQk/NPELagPO4FIsapgbZLJ29NXdSXa/1WVOD1+sVVcjnv3QF1385kt0af7s7bi9OLVxanpxffvvOnSEDEPaE9uv4kQfL8LYZHocbu9fdY1dWz5Kj6k/UqWKOpvL7gaT3jiFSRL96evtrRsfiu/O6dxY6OjunFv/ZFuhGkEGwYOCyoQq+zZJzMKqPXGyXpsMuZ3LsIo6xobnBcdCXr0x8F+cEDEH7qhixaA3++cpUZlLry5cL82MxX19gPV6/8RS2ow40GJu1VKNX+PkP/wUG/4SK0SiaROAVLFp3OujSX8s15atfO9E5skdvTDLWO974cbIOYW3mX+3x18XaEx9Wm92cVrrDUVBOghnAdqOLZMIqvcRFUpXyPk+Gdz8faWMzPcFJl5PrFsKqwECOa4dcEynrEmgTnjejdbIWCvsexuv31aFsWI3/PXoMGe8dfVI57LEesUJwY+v2aeyWQggmAxptEuaZfq/0OJ71rSyNteQz+7WqOasfiXxwFn6TQ1UhfhUD967VuQoShSPHwzUD21t3fsJymr62Mjg6OzWeZ9i5dyTPteE9Z6IR6QvUhCql2JmprqiClkUVjbAhl5dS5yBJ9d2Z86Sv5V0uDWaqTt/NEr+i6iyzVWi+htihqbKqUC8R1haTAwRrk9H9NLnwlZ7HAMV24WyDKWzo1Bsu3zE4J7X4t00LMtfbUV8hxVRdZ3V38bmRJnsU8n+kVK78/2Ir21Ytpiy5WQ/3FbyiLI2TgG87BfreQI5oV6sQ1jujbZmFSaOyrm1AV/TVsQUSVvHWWyCLneN/Ni1Q+yTKd4TzyFX9Jx1cVMdTLUluU67XTX8qHFFWgJms2mNzJE5VPsAH1ayZLuvqemfnB1qIy1Wj/aeuluV5UUWvNZp41YUexfDz/nWU6XWA6xyrvu2zShAoW2jzoz3c2LmyE6qe/llr5X2yTt9bi/mvOw97OEV1hiI7+DWr11dtMVlxcn/oOdq63t7dfuFevnLClxZypkVDB/UA3M53q8znc0ALdd3JMr3JUv5zphUTH5DBvWPw2wBeo0f9++4V2Btfft9ZNfy8makATJ+nE8xczkxPjDCZ3PYjnT/mkb/o2zBsmYIrfOzcBiUIT9SBF7SSouX/eac9h46cjlv9PDuXUafNfjNrcnhwcHZnvzee2D5ikN0/16pXv/j45Pj4x8/W16atX7voETtdjmG0vYHagTkShU3Kdjih1ODOa55jFjAdpHb67mE/7ri7euXv32nvT029/GxFGUc+fNy4UMW3fqp+p7p9mYQq4ZkbaSjCmZqwP/WJxulC4QLrfWIdsCL+Vj3j+wSfa3v6Brk5EUfMpFpFx53gpT2iRT9m00DPUdecKQ/Yq0yr7YshdMsOB2C7Ntguw8VPFcYdTQGk4easwtSBGtK3tObdMipg89m+v3b527Vuzw8MM17fy2p/wguKekCg01an6EG1BdbET8gSpQXGibRPDxXIr29tujWxdKGV6Yae/Tv0HxQlb3cAlqrqsoUayVIppla5WBH5+vZQopLp1sfxwx2mA6uJH0xIBPSn0uXmMaFVI6dyuEKZ/bIgRZRKIrvqYqmL9JDEVX5ovR7Std9nImmMlIK3WEm+Up/qBv4ZUlfnxALTvBEPPmthYWaIwoopNHAmM1C5mpFn93Xh5xExoFUANFnNuTE97gnk7aqYC0bYFx1ESLWekWWzs62tGVR+SH3RyWabCUnWgwZxzlZiODR8lUmM5I81iNlhxXLIaoMqLj13rFub7UF3VLX2yokjbRu1cClTeG30/W1Z3OQWe3T9ieLsaruZ9mo71aJlRjyrzJE24kpVCpqgKKa+/CNLtL+uN8tgZqJlUmdn9sJfO9LWgA1WqL3gtku4WM9VWXAo3mXeOJNrefq+WKxjKzpgXdwW1uiorGm/5WMoxbSkrU3jd84+jJcpSNdQwg0DN65SMXLbsV8eULpPwFttpuejisX9Q2RkVUe2pJVVtKIyBsLy6OOOqbKZtgz4xiTJEPeg/d65XdkZF2OqrJVWlwQVkZHW573YFM+3t7R15IZ45tAas389WCqNCXH//NI390jX1Lpg5VBdmXoiYae/c2PibH0LMRlG9g7VSPk2VZ+j7rY0Lx5YnR3Xr5FRRnbzHz/ffqL/aMdGlEqaj4zNpgorST32ISsVx5KmtLaD8+c5x7ZMn1ZP3IJSX5NZLfTyuqL/KJH9JaJdL2xS76VvjzURsHE1eWIl0/c9GNWpbRPXlyTujCt2Ao++WpXgAGO2sLsnnyXR+4sZm0S+K2B02FbZNMDQDXS93TkaTpfrByami5n4dTazrCukW6q+u7/uiULHNTaRpvkLgxK79cq4HaPMM/3Nrtr066+Rj4+XJO0uofiqu8boM+W9AzdWlDtu5/H5ucltkTB6nNm8qhzwqxOQzn8g6+ZitvDmqMlX1QFiGkcG8teur6zuEuQ7SyGS52UYMRInkQV/ogxNaJw8XdgynyAsVAy5Mhsd6shpcJdMosxg6MpGkKgYnQBKu2I+v7u3MbhQwO7tz7/1Xr37xi1evtnaY/3L9evuFo2LPqZIllNnvhhHZHbxVMgXpicGJ7fL7AYp+Eo+SNJFwOX9kEXeFaYpijpJhpgMpOuz68dXWFvO7qEgXxppT1DWKroxXpqGCrLFqq+yaAdpVxWmVzHk5WQgGz7mDdKjEjy/v3t7aKU/3+nen6nebmYN3ovvMSnS1TGsPDKfCsdSN93c2xEz7wsbUaaiiWmYs35vyw3cNZ8oC4CQddr7itJlPdfbgNAvmqJYZ6sBTuiaQaQHQtJNL//rfLVgLFLO9V8XAh7JkWwKqDsHkyJuxNhNTeEPbvW0jgzM//OtekSZf2CqzyU8E+lv9eqG3VgyEARNtmokpyJW/o1/Gf7xXEG0VC47moJzZ2MenypSneKyZmFK53s0EocEp1yuox6xL3vjp2P1uVDvQpxwQnA2htCQg1TPZB3Y8YM+zueboIZOAwXQr/vLaFtTjCxvfHzstRJU9Wo9yqotfi1sSmKxJTi6B8RXbzDapemeKdt7Q8diP789u3Tp+E1jRaTEZlcx2xqKLhqY4XpPZNRJ2uVwvcsU9/+AYjIlAsX7d8bnqOj1IwGwpDsTK/oYfvAMo5+GbhbHRubm5XI9qonQsTAOizn7/cbcjoFaLGzENh4oySVQdbOjxFpjX9cPknLBjsyI6awJiK+v+Y8oVNU8FEMSkMxSmnNBgA0+3wKKumUGRFtxgWqy7Ra60jU6u+4/nmlBtyKdCWocM/gLTxskU33wzJr4iMPaaKK0KCaY0Hp3s1x1vc6bWMIwgrW5D7lgMRcOYauhDTp69o+MrwpWB3smS41xBmjPjkZng8XyTdoA5yqZbl52dUAYbQhMKNM6MTs6Pjr9OBuXcFFfvyOjg+OTEwtjcPBTekuA4K28hq0hkuo6hw6gyxGxR94QG2L6Ftsp1mVqB3Ia6ODrxJkER8Rlm/1Dv2PjMdoKmSApeeTMx2ta7wLdWIiv3+SVM5iUOOo/BVWmAVFXKNEMV1S83gqeGeD7SNj9zSOF4eJux1bmJpTSV34gKcCq9NNg2ul3sLXO9urE08wV4OHjxSB1G1YYIgjicRL+yBfWfdPrqNACuyd7ehRuUDNA/QEnNj71IlvQx8M3DwYmiYI+v5IJtVtIgvNx55JZqZSjSqurECYMC7TrlROhJAJzj0K9sAozanphvG1l4vSm6ZIInnsuz/DGAJ7LTXiOvC4/qoJM9R41/KKBbGiJk4UvVtvBrATy50Da2RGq8zsm5tvmJF0S5Zx7Bn0gwx6QSm8709otsAjVWHH9wOtN/xLlgaoPPdAiwWFfN5vGPDRAbbBuP4RoaFi6944cVD3DCSMJ5uDI+N9/bmwu8MzTv9wKoZYO+0vGaLdp+BwrtJCk/67M1IdHemU0MxBlT3U5U4Akr1PTKhHBaemxmm38OhIZyGioliag2aN+E1enjMz6YEGwujKzQMtw5OD+2UukYXoxMvBkvGQpnMDqRpnm1DiCdA7ryckX1oX7IssLRPPWAhpgZXKJkeOrzlaW0t8I6AJXkMsXeOZFxg7nJJF9AIBq7VZ4r6pfXYntFdSAfxza9MswVpsqfI8MY3/PJeZgyjU1+Lv9qIpsfjswNLiwMjs2NzMMMak6YQclw13KXugxZ1Co/85zXe4xnywEYfEbaRsffuB5mno+zLnducPxNOkEwSLjSbybHx0YnS8IjTmR6zGUCbE+N99zWBN6HkyNtcytp0ruZZnnOj69sE2QugWIO7/CSxOsleWnUwKlM0C/KVdHfdEeug8QSDLKwkgH04XgvU+ispMQCrga6IRF/ponG9qESl+qv7uwttSI05PZ4W+9gigLkNrRUNn8qv9dFXCG9t/oEJ7kxTC2pRp+nyQNwzcy1zc2Ece8mTJ9g2v+aruSfyyDpCLQMWPidQdRgbaJur8ybhPq6cEhixIsxbtn9RHKgI4jK6OsMdhafXWe5vNo058FiNLTQkZVNgB/CwDI3kzypDwHcPnRjRGfoyp2spO1C7M3yNDvgkk+MLbymAPF8fH500nnEEVEVoNnMbv5Uue16CzNshqJ9KGKyNIlQcZomwgSOhR8/f7GUPtWp/mRhHtXk8fmDIZ0yBMkPr9XsZmsCjaycUz028PvsTFRuK7rqstYSYuarnzbvkwJOijXB3mVExVJ3S+yBYBDkTUac2b2ChU3MqpamS5ROC+yw9AkKrDs2SE6odAThyTQnWl99jvxqIEBPmR0eZsnpbzIguhsUMWaaKv2tAbxKlShTJCA1/wvulzl8VYU2fGm8xqCHRTwSO0feKbH8wbtabteZsbkq1VNDs+ZGxGTKPA6kIY8IqB9IfRmZIqpIs9RvNcKuUcz3sqdV9Z2fRzMeB1QLJ0KRYGM7kJRXAg9En2PIwl23430bAsKHiHkk9mU43gyzdbWC94F4RcMqcaTJ+r+ngmbNUVamiErbTF3R0yL6tOQQn8L5TKZnUnLA6UCFYwg8exLySniPSrx4Y1/c/RLKleKiu9Y5mbYijrR0qHrNJnGPxIl2aE0yVDHmKE/uFKPSFzYDlkxfybunqnC2D2JTSyfWrPnEo0z2xWSVTAsNGGyVDmxCTE8lE1aJ/BlyosEG6bZIhSpYNVYUKuJZlUoGQdtLwwvvk+dQIlRBzIMIogzCDzYBqVSrpJV3YhNi8/H1GUF8D6WRQWAxNy+8qCI6hBdskNYhpzQKc28XL31ATJ2o8NHX9uZ8BHvVSAzxw4tHPtTKDz1IxCUJBcYfCCxTcesyP/QgNlQa7RbCnhMgZ5jd/aFuQehR6SWxNAUOjcVRphW5/DhoQgSVjTksBVsltfyAqmq5YbYJqNq0kpBqdpE8H2yMe/GIShBsTGYp1HBev4nvlBzpktYLYtNJgWp4WBBXzOG0m/8YTwSxWenz34RgRux4AvTcJ596hFLtvikBqdJKXhGDIMOJKDMfyw823RJYcdSk3Txni6jMUUprK6pzuKy48/xL1dvFjyvMxMNaBBGUdIjx2flvLSWGEV5cQewEiPlKHj9rvHnuqeK7gvTXpouCTMnaDWLqOvdUKSWSf/wC++K+D/BVj+AigpjOvQcGaX5YQVojhIx61loi1fOvwGxNXhRXEJvFKyPUpWs2nr1G3+pp4RpCipdnIKUYkDEZcE7IOVmfd/WV4atGHlUEgZzAQ4fgouf++e9A0KjguT7dD3AZnvEUX0QQ9LybqYxxSm5BXyWQgfa7X1zpIB5JLCF7uUdVFcUVBbRJitshlr3YJY0RtLBdIFTTMi6TEWi+U4o4GnFuSR0AVj2CWQCHC5MBplPKXTTpJLJ4IYtquUw/F1cQlZpiDDiQ9UfDkhmKBS4Hv38E8wTogfADD1ehPpKKSKFT2m0VUB1iDtIku7q5AqfR91dD0ArhuoyfCaCU1Qat9FAKESaPjPDpGkZmCVXDTAqoJZA0FCFqNglCzfCahnnGle/8p/Z8aMKCKWfEpmeyBZAJnf+GGR94Mtt+yAUb6H+ZVRlceJzL+QelF/aPWJ+rOf+NbSE0MYdw4mxPGtluCcClboFTYopySYJGBTvfJNBoEAdIClZlkO6b0skDeYiu5qbMsj6pWzJFjBBrQwivpEElqr1Qf/c8xXm+Q2obq4tAMpVqjqpq94wPJDxLaBK+XFGDqPTSSu0FwHdzz+eSTPOoHGh1Nv3tfiph3WWRdrCNMonrLgO8k0kKEd+aFObLKoNmBrCMB1LNGYoAnG6ou1Krv0Xh3VMNSWPi9UgQ6vv/D3SXAXZDTHf/D09DTw18Zni+AAAAAElFTkSuQmCC;strokeColor=#6666FF;" vertex="1" parent="1">
          <mxGeometry x="490" y="94.92" width="40" height="37.08" as="geometry" />
        </mxCell>
        <mxCell id="Jl1QDGb4fc3AQuvFbjfJ-16" value="" style="rounded=0;whiteSpace=wrap;html=1;strokeColor=#6c8ebf;fillColor=#dae8fc;" vertex="1" parent="1">
          <mxGeometry x="330" y="175" width="300" height="175" as="geometry" />
        </mxCell>
        <mxCell id="Jl1QDGb4fc3AQuvFbjfJ-17" value="Digital Gating" style="text;html=1;strokeColor=none;fillColor=none;align=center;verticalAlign=middle;whiteSpace=wrap;rounded=0;" vertex="1" parent="1">
          <mxGeometry x="436" y="186" width="80" height="20" as="geometry" />
        </mxCell>
        <mxCell id="Jl1QDGb4fc3AQuvFbjfJ-18" value="" style="rounded=0;whiteSpace=wrap;html=1;strokeColor=#666666;fillColor=#f5f5f5;fontColor=#333333;" vertex="1" parent="1">
          <mxGeometry x="340" y="216" width="280" height="54" as="geometry" />
        </mxCell>
        <mxCell id="Jl1QDGb4fc3AQuvFbjfJ-19" value="Component A" style="text;html=1;strokeColor=none;fillColor=none;align=center;verticalAlign=middle;whiteSpace=wrap;rounded=0;" vertex="1" parent="1">
          <mxGeometry x="340" y="216" width="84" height="20" as="geometry" />
        </mxCell>
        <mxCell id="Jl1QDGb4fc3AQuvFbjfJ-21" value="CC" style="rounded=0;whiteSpace=wrap;html=1;strokeColor=#6666FF;" vertex="1" parent="1">
          <mxGeometry x="350" y="240" width="40" height="20" as="geometry" />
        </mxCell>
        <mxCell id="Jl1QDGb4fc3AQuvFbjfJ-22" value="UT" style="rounded=0;whiteSpace=wrap;html=1;strokeColor=#6666FF;" vertex="1" parent="1">
          <mxGeometry x="406" y="240" width="44" height="20" as="geometry" />
        </mxCell>
        <mxCell id="Jl1QDGb4fc3AQuvFbjfJ-23" value="MT" style="rounded=0;whiteSpace=wrap;html=1;strokeColor=#6666FF;" vertex="1" parent="1">
          <mxGeometry x="466" y="240" width="40" height="20" as="geometry" />
        </mxCell>
        <mxCell id="Jl1QDGb4fc3AQuvFbjfJ-25" value="SCA" style="rounded=0;whiteSpace=wrap;html=1;strokeColor=#6666FF;" vertex="1" parent="1">
          <mxGeometry x="525" y="240" width="35" height="20" as="geometry" />
        </mxCell>
        <mxCell id="Jl1QDGb4fc3AQuvFbjfJ-29" value="DCA" style="rounded=0;whiteSpace=wrap;html=1;strokeColor=#6666FF;" vertex="1" parent="1">
          <mxGeometry x="570" y="240" width="40" height="20" as="geometry" />
        </mxCell>
        <mxCell id="Jl1QDGb4fc3AQuvFbjfJ-34" value="" style="rounded=0;whiteSpace=wrap;html=1;strokeColor=#666666;fillColor=#f5f5f5;fontColor=#333333;" vertex="1" parent="1">
          <mxGeometry x="339" y="276" width="280" height="50" as="geometry" />
        </mxCell>
        <mxCell id="Jl1QDGb4fc3AQuvFbjfJ-35" value="Component B" style="text;html=1;strokeColor=none;fillColor=none;align=center;verticalAlign=middle;whiteSpace=wrap;rounded=0;" vertex="1" parent="1">
          <mxGeometry x="340" y="276" width="84" height="20" as="geometry" />
        </mxCell>
        <mxCell id="Jl1QDGb4fc3AQuvFbjfJ-46" value="CC" style="rounded=0;whiteSpace=wrap;html=1;strokeColor=#6666FF;" vertex="1" parent="1">
          <mxGeometry x="350" y="296" width="40" height="20" as="geometry" />
        </mxCell>
        <mxCell id="Jl1QDGb4fc3AQuvFbjfJ-48" value="UT" style="rounded=0;whiteSpace=wrap;html=1;strokeColor=#6666FF;" vertex="1" parent="1">
          <mxGeometry x="406" y="296" width="44" height="20" as="geometry" />
        </mxCell>
        <mxCell id="Jl1QDGb4fc3AQuvFbjfJ-49" value="MT" style="rounded=0;whiteSpace=wrap;html=1;strokeColor=#6666FF;" vertex="1" parent="1">
          <mxGeometry x="466" y="296" width="40" height="20" as="geometry" />
        </mxCell>
        <mxCell id="Jl1QDGb4fc3AQuvFbjfJ-51" value="SCA" style="rounded=0;whiteSpace=wrap;html=1;strokeColor=#6666FF;" vertex="1" parent="1">
          <mxGeometry x="525" y="296" width="35" height="20" as="geometry" />
        </mxCell>
        <mxCell id="Jl1QDGb4fc3AQuvFbjfJ-52" value="DCA" style="rounded=0;whiteSpace=wrap;html=1;strokeColor=#6666FF;" vertex="1" parent="1">
          <mxGeometry x="570" y="296" width="40" height="20" as="geometry" />
        </mxCell>
        <mxCell id="Jl1QDGb4fc3AQuvFbjfJ-55" value="" style="endArrow=classic;html=1;entryX=0;entryY=0.5;entryDx=0;entryDy=0;strokeColor=#6666FF;" edge="1" parent="1">
          <mxGeometry width="50" height="50" relative="1" as="geometry">
            <mxPoint x="69" y="170" as="sourcePoint" />
            <mxPoint x="330" y="105" as="targetPoint" />
            <Array as="points">
              <mxPoint x="70" y="105" />
            </Array>
          </mxGeometry>
        </mxCell>
        <mxCell id="Jl1QDGb4fc3AQuvFbjfJ-56" value="" style="endArrow=classic;html=1;exitX=0.5;exitY=1;exitDx=0;exitDy=0;exitPerimeter=0;strokeColor=#6666FF;" edge="1" parent="1" source="Jl1QDGb4fc3AQuvFbjfJ-2">
          <mxGeometry width="50" height="50" relative="1" as="geometry">
            <mxPoint x="200" y="250" as="sourcePoint" />
            <mxPoint x="328" y="280" as="targetPoint" />
            <Array as="points">
              <mxPoint x="205" y="280" />
            </Array>
          </mxGeometry>
        </mxCell>
        <mxCell id="Jl1QDGb4fc3AQuvFbjfJ-57" value="" style="endArrow=classic;html=1;entryX=0;entryY=0.75;entryDx=0;entryDy=0;exitX=0.441;exitY=1.006;exitDx=0;exitDy=0;exitPerimeter=0;strokeColor=#6666FF;" edge="1" parent="1" source="Jl1QDGb4fc3AQuvFbjfJ-1" target="Jl1QDGb4fc3AQuvFbjfJ-16">
          <mxGeometry width="50" height="50" relative="1" as="geometry">
            <mxPoint x="125.80000000000001" y="346" as="sourcePoint" />
            <mxPoint x="175.8" y="296" as="targetPoint" />
            <Array as="points">
              <mxPoint x="67" y="310" />
            </Array>
          </mxGeometry>
        </mxCell>
        <mxCell id="Jl1QDGb4fc3AQuvFbjfJ-58" value="&lt;div style=&quot;text-align: center&quot;&gt;&lt;span&gt;&lt;br&gt;&lt;/span&gt;&lt;/div&gt;&lt;div style=&quot;text-align: center&quot;&gt;&lt;span&gt;&amp;nbsp; &amp;nbsp;DG Passed&lt;/span&gt;&lt;/div&gt;&lt;div style=&quot;text-align: center&quot;&gt;&lt;span&gt;?&lt;/span&gt;&lt;/div&gt;" style="rhombus;whiteSpace=wrap;html=1;strokeColor=#d6b656;align=left;fillColor=#fff2cc;" vertex="1" parent="1">
          <mxGeometry x="680" y="240" width="80" height="70" as="geometry" />
        </mxCell>
        <mxCell id="Jl1QDGb4fc3AQuvFbjfJ-59" value="&lt;div style=&quot;text-align: center&quot;&gt;&lt;span&gt;&lt;br&gt;&lt;/span&gt;&lt;/div&gt;&lt;div style=&quot;text-align: center&quot;&gt;&lt;span&gt;&amp;nbsp; Good Code&lt;/span&gt;&lt;/div&gt;&lt;div style=&quot;text-align: center&quot;&gt;&lt;span&gt;&amp;nbsp; ?&lt;/span&gt;&lt;/div&gt;" style="rhombus;whiteSpace=wrap;html=1;strokeColor=#d6b656;align=left;fillColor=#fff2cc;" vertex="1" parent="1">
          <mxGeometry x="680" y="70" width="80" height="70" as="geometry" />
        </mxCell>
        <mxCell id="Jl1QDGb4fc3AQuvFbjfJ-63" value="" style="endArrow=classic;html=1;exitX=1;exitY=0.5;exitDx=0;exitDy=0;entryX=0;entryY=0.5;entryDx=0;entryDy=0;strokeColor=#6666FF;" edge="1" parent="1" source="Jl1QDGb4fc3AQuvFbjfJ-7" target="Jl1QDGb4fc3AQuvFbjfJ-59">
          <mxGeometry width="50" height="50" relative="1" as="geometry">
            <mxPoint x="630" y="170" as="sourcePoint" />
            <mxPoint x="680" y="120" as="targetPoint" />
          </mxGeometry>
        </mxCell>
        <mxCell id="Jl1QDGb4fc3AQuvFbjfJ-65" value="" style="endArrow=classic;html=1;entryX=0;entryY=0.5;entryDx=0;entryDy=0;strokeColor=#6666FF;" edge="1" parent="1" target="Jl1QDGb4fc3AQuvFbjfJ-58">
          <mxGeometry width="50" height="50" relative="1" as="geometry">
            <mxPoint x="631" y="275" as="sourcePoint" />
            <mxPoint x="680" y="266" as="targetPoint" />
          </mxGeometry>
        </mxCell>
        <mxCell id="Jl1QDGb4fc3AQuvFbjfJ-66" value="" style="rounded=0;whiteSpace=wrap;html=1;strokeColor=#6c8ebf;fillColor=#dae8fc;" vertex="1" parent="1">
          <mxGeometry x="770" y="166" width="120" height="60" as="geometry" />
        </mxCell>
        <mxCell id="Jl1QDGb4fc3AQuvFbjfJ-71" value="Merger To Repoxt" style="text;html=1;strokeColor=none;fillColor=none;align=center;verticalAlign=middle;whiteSpace=wrap;rounded=0;" vertex="1" parent="1">
          <mxGeometry x="780" y="178" width="110" height="20" as="geometry" />
        </mxCell>
        <mxCell id="Jl1QDGb4fc3AQuvFbjfJ-72" value="" style="shape=image;verticalLabelPosition=bottom;verticalAlign=top;imageAspect=0;aspect=fixed;image=data:image/png,iVBORw0KGgoAAAANSUhEUgAAARcAAAC0CAMAAACJ8pgSAAAAwFBMVEX////wUDM9LQArFAAzIAAsFgA7KwApEQDFwrrLyMEnDADwSSny8e7vQBo1IwDr6eaTjX85KAD84Nv1j4HvRCBDMwkvGgAxHQCGfm/0hnbvOw7vPhU0IgCtqJ7wSywkBwAhAAD5wblsYk7e3Nfzemf6ysOPiHr3qZ63s6tlWkX+8vAdAAD5vradl4tZTTRzalfzfmzyZU4SAAD2oJT72dR+dmX95+T1lIZOQSL3sKbt7OmjnZLuMgDxYkrxW0Hycl/vP7hGAAAHIklEQVR4nO2beXeaShiH2RFUlISAiRuRxJpFTZPS2Np7+/2/1WUdhlWTogd6f88/OWfYzjyZ5X1nRoYBAAAAAAAAAAAAAAAAAAAAAAAAAAAAAAAAAAAAAAAAAAAAAAAAAAA+x8Vdd3b9eIIXO1vdsq6GvRO8+gzc/5qxbLd/UfuLp0+axHGSJQ5qf/UZuL9hA2oX4zxxIfqu5jefg/sxG2HULGYpRF64uVPvm89A3FpO0GIe9NiLOa31xWeA1lJ3i9kQLxbtpRdQ54fq5zalpeYWQ7WXFVW8sHmef1Vq/FD9vBjs6cQMi8eXoBnxzfbCXJ9QzMAunI94rgVeTirGi184P34x6fjFkRvu5fZL8OeUYpSFOrf1ZWqQXQvN9nJ7Mz69GH/2yRToUqO9+DPRWcRkmJpck72EE3Qspm8Y3fOICUeXxnqJ45ZIzNuP53djdgYxHVNqspcknIvE+NzRTWb8rf6vDlYbOY5o9O1wGbI6/OC5oKNcSszXVIs5Rkyvs95urnTuarNdd5QEP4wbSVcEoeMVvKomCYA9MUIIPzpVLT9MOvi/uY3Lv/Xp8vHBruRseV7QdMlD1wSRJ8w33tWNJhFk34vNFTFpjJdMTkQNJZlZ6UCLcW2tsKZeW3jwLnNSUiD6XubN9pJNFcfJAmaqIx0YY35yQmE9Yy89nipogZesFrq95OKYcjE9XS+sJvHivFI3BF6eJpqWlOlaSEPGl5wWtvtGLuay6/IWs5iQCpq8LFqk0wiirD7548vqwZ6kvLij0Wgbi9G3o4hGLFk957R4lf9OLuci3zIxStwpJHWxUhxlH/cqYao4gyj07y0ntJegSI1KmhW/FGnxWkxS+XxKUCxmEf/fzbh+ozC+1xfUXT0562XQSC/FWlj2lz/EhAKOazHk364m1YtW59QOdVs7vJRpCYfe65IkskiMIicDLCnjc0Xt8FKqJfRy+et4MVFSnF7PjsrsZGGhFV7KtUReunF2fdPvG9Upwd7K1NcnCuTkZC23DV4qtMRe4lzp2+Pj/T+VSWShl2goFpMat8BLlRbihU4ir6vEkH60T8oG+ZWV5nu5qNKSeKHF/EvfMU6fdojG2NRCf7zrqrapH112S5RkvLBj8sgzPf5SQbFPLw7rzHVc1IkdqNRtjffye1aiJONl9pU8ckGvOsx+p99HthJ5N2geg1FcYW2b3NV8Ly/Heknqn/bykn4fyQM4TZZ3O1MlqdCcqnDzvdyOy5xk+tEseYTuR/3nzAu3FkeQqMx50rI8IBetlXgxiAB6Mab7O/fCXeHyi87R20Ut8FIphvLCGlF2/UbdX6DFSx3FvBbrKrWL1gYvVWJoL2z/x6N/EvGQFi+4y7QYaTLPrDG1wkuFmJQX1uiz3X51J/Jx/DOFnM6bE3/ZTTBVbZk9XljhxWzQ9kipmLSXDCValHmgZeNMl+526w5XBUfoKrxo7smq+XHKxFR5MUq02EGWaFceKMx7SVbDSXrZhDOsJWKCdanrQi/GXeGLnKC1cMKw8nN5L9FphqAnDTtKZ+rqeq01/CSFYsLg5IItiP1KtPS0sHrCftVRHOdnySlC4sUkXpIzd5wg8qKlSWojzrAWiCHJct5LiRZmbcZ1M0VellXe0ncP7nrlUGtSq6F7RRqHtFhOg/rHmTg1t++Lv3FmcmK67/Gl++ylMi3UCVRScV335iTZ3kwjNcqroFE7jrpgBykmWRlOrmxOXuejyIqhVuO6R2phdqWbarophjOwwmeuCGHqvc9uO0qvP09c4yPJiCndhy3XwrhlO9M+djAYl3lhlk+UVEnjzcb83OQyJaafbKsd2Vr8X0RIXDm2H8sqT0IaNV6qUTZz0fKCwYklqprbKf/K2UmJMX7Exd/HR2phmI5eISbYKnGWwzTLxMBgtR657mjfacRURJESQ5YW7qhuZLxUPe/NK1a5F05tSs/4MLSY2dfHXFl1a2GYVTB6SiZvz1WZF01LoI4q0FslbSMlpv9+f/+F7R7fWsJfXEm61y56jqN0VvuhuzFJft2gZPnDpLpSN31O9ZCWaJ4WM2PmKBaTvdAqLlOn6diPaHHCGETIlvPt70dMuZiDWqJgXrrKlsex7Ly1425AsZjDWph1OBllM77490ZNiew/TZGYI7SQSdpaUQ3DcUk3atBa3OfIizlGC6OQ1Uhx5w7X6/1w9CDJcW7Q+ubC5MUcpYVhOBKseFm0ZVnCJIl/dbEheeAf8d7/hBbGsUvTAEFqwsLkn0OLOVaL15PM4jxAs912z0UJiZjjtXhh7lDmhXTyqE9E22115JImFmNcf+w5ZbjRZJX3siNTFGXV2o06f0tbCQnFfFRLQM9RvOzIX/z+O0aVNG83hnHzfvi+/x2Pz8/fD98FAAAAAAAAAAAAAAAAAAAAAAAAAAAAAAAAAAAAAAAAAAAAAAAAAACcnf8AAjeRA4lSlaoAAAAASUVORK5CYII=;strokeColor=#6666FF;" vertex="1" parent="1">
          <mxGeometry x="811" y="197" width="43.4" height="28" as="geometry" />
        </mxCell>
        <mxCell id="Jl1QDGb4fc3AQuvFbjfJ-74" value="" style="endArrow=classic;html=1;exitX=0.5;exitY=0;exitDx=0;exitDy=0;strokeColor=#6666FF;" edge="1" parent="1" source="Jl1QDGb4fc3AQuvFbjfJ-58">
          <mxGeometry width="50" height="50" relative="1" as="geometry">
            <mxPoint x="720" y="233" as="sourcePoint" />
            <mxPoint x="770" y="204" as="targetPoint" />
            <Array as="points">
              <mxPoint x="720" y="204" />
            </Array>
          </mxGeometry>
        </mxCell>
        <mxCell id="Jl1QDGb4fc3AQuvFbjfJ-75" value="" style="endArrow=classic;html=1;exitX=0.5;exitY=1;exitDx=0;exitDy=0;entryX=0.017;entryY=0.378;entryDx=0;entryDy=0;entryPerimeter=0;strokeColor=#6666FF;" edge="1" parent="1" source="Jl1QDGb4fc3AQuvFbjfJ-59" target="Jl1QDGb4fc3AQuvFbjfJ-66">
          <mxGeometry width="50" height="50" relative="1" as="geometry">
            <mxPoint x="690" y="200" as="sourcePoint" />
            <mxPoint x="760" y="230" as="targetPoint" />
            <Array as="points">
              <mxPoint x="720" y="190" />
            </Array>
          </mxGeometry>
        </mxCell>
        <mxCell id="Jl1QDGb4fc3AQuvFbjfJ-77" value="Yes" style="text;html=1;strokeColor=none;fillColor=none;align=center;verticalAlign=middle;whiteSpace=wrap;rounded=0;" vertex="1" parent="1">
          <mxGeometry x="720" y="150" width="40" height="20" as="geometry" />
        </mxCell>
        <mxCell id="Jl1QDGb4fc3AQuvFbjfJ-78" value="Yes" style="text;html=1;strokeColor=none;fillColor=none;align=center;verticalAlign=middle;whiteSpace=wrap;rounded=0;" vertex="1" parent="1">
          <mxGeometry x="720" y="216" width="40" height="20" as="geometry" />
        </mxCell>
        <mxCell id="Jl1QDGb4fc3AQuvFbjfJ-84" value="" style="endArrow=classic;html=1;exitX=0.705;exitY=0.108;exitDx=0;exitDy=0;exitPerimeter=0;strokeColor=#FF3333;" edge="1" parent="1" source="Jl1QDGb4fc3AQuvFbjfJ-5">
          <mxGeometry width="50" height="50" relative="1" as="geometry">
            <mxPoint x="390" y="120" as="sourcePoint" />
            <mxPoint x="70" y="170" as="targetPoint" />
            <Array as="points">
              <mxPoint x="720" y="20" />
              <mxPoint x="400" y="20" />
              <mxPoint x="70" y="20" />
            </Array>
          </mxGeometry>
        </mxCell>
        <mxCell id="Jl1QDGb4fc3AQuvFbjfJ-85" value="No" style="text;html=1;strokeColor=none;fillColor=none;align=center;verticalAlign=middle;whiteSpace=wrap;rounded=0;" vertex="1" parent="1">
          <mxGeometry x="720" y="40" width="40" height="20" as="geometry" />
        </mxCell>
        <mxCell id="Jl1QDGb4fc3AQuvFbjfJ-86" value="" style="endArrow=classic;html=1;strokeColor=#FF3333;exitX=0.5;exitY=1;exitDx=0;exitDy=0;" edge="1" parent="1" source="Jl1QDGb4fc3AQuvFbjfJ-58">
          <mxGeometry width="50" height="50" relative="1" as="geometry">
            <mxPoint x="390" y="320" as="sourcePoint" />
            <mxPoint x="70" y="230" as="targetPoint" />
            <Array as="points">
              <mxPoint x="720" y="380" />
              <mxPoint x="70" y="380" />
            </Array>
          </mxGeometry>
        </mxCell>
        <mxCell id="Jl1QDGb4fc3AQuvFbjfJ-87" value="No" style="text;html=1;strokeColor=none;fillColor=none;align=center;verticalAlign=middle;whiteSpace=wrap;rounded=0;" vertex="1" parent="1">
          <mxGeometry x="720" y="326" width="40" height="20" as="geometry" />
        </mxCell>
        <mxCell id="Jl1QDGb4fc3AQuvFbjfJ-89" value="Generate Docker Image/Library" style="rounded=0;whiteSpace=wrap;html=1;fontSize=16;strokeColor=#6c8ebf;fillColor=#dae8fc;" vertex="1" parent="1">
          <mxGeometry x="970" y="63" width="260" height="37" as="geometry" />
        </mxCell>
        <mxCell id="Jl1QDGb4fc3AQuvFbjfJ-90" value="" style="rounded=0;whiteSpace=wrap;html=1;fontSize=16;strokeColor=#6c8ebf;fillColor=#dae8fc;" vertex="1" parent="1">
          <mxGeometry x="970" y="129" width="260" height="71" as="geometry" />
        </mxCell>
        <mxCell id="Jl1QDGb4fc3AQuvFbjfJ-91" value="Image/Lib pushed to repo with tags" style="text;html=1;strokeColor=none;fillColor=none;align=center;verticalAlign=middle;whiteSpace=wrap;rounded=0;fontSize=16;" vertex="1" parent="1">
          <mxGeometry x="980" y="140" width="240" height="20" as="geometry" />
        </mxCell>
        <mxCell id="Jl1QDGb4fc3AQuvFbjfJ-92" value="" style="shape=image;verticalLabelPosition=bottom;verticalAlign=top;imageAspect=0;aspect=fixed;image=data:image/png,iVBORw0KGgoAAAANSUhEUgAAAOEAAADhCAMAAAAJbSJIAAAAkFBMVEX///9Bv0c1vTw+vkQtuzXx+vGo3qoxvDg4vj8uuzY7vkGq3qy147bg8uAquzL9//1Ow1P4/fjb8dzS7tOB0YXl9ea75b3W79eS15XN7M5uzHJpym2W15nH6sih3KPq9+tXxVx4z3xex2OJ1IyT15a45Lpqy29RxFZaxl91znl90IFIwU0PtxwguSkMtxud26C5sAZ6AAAQ80lEQVR4nO1di5KiuhZtkmAgahQfKCqK2ratHm///9/dJEASXrag0Z4qVtWpMzPyWiTZ72w+Plq0aNGiRYsWLVq0aNGiRYsWLVq0aNGiRYsWLVq0aNGiBYMXBJt3P4NRjLCLaRS++zHMYeBAy7IgXZm6QW/lm7r0fThgS4AG1cfYYdh4Hk+ocz00OtMLe/2md9Uxd2KGcFd5SB9hTDsNrz+EFjk1OXGNMbg+Y/H41EoG0as65Afwn+1m198xhucm5/G5BZ1mN81iTmHMsHJKBFf2Mxo3u/wnsGiDhbjGvzxUHcwsMVFp9REdAKBbOcS3MaV00eC0Y/za0aDZXXMYnCiEtHvriNWl4RAygTFq8khAEMTrpnfNw/8mtwi+AUxAWRBUS79/H75LKZw/Z45mYI9uiMxNw6XYCF5/Y4Lf8oquX1Uc19drE+vkp5E2NIQhF6oEl9svfaY4aX3Tpn+lf8fmncbKn5Sv7zUTb+Sr9kV7wPmpdULQvWE/PoiBa91Qs2fC9VPtebonZF/j8H5EAY2MLfjEgit/JGHAQqfuzS+QbO8/eiQMLFDjjJoIXWFKaMttE6SCZyzoO5N6V+y7FhzeffQAxqYMqHeTOpjGwmaZ/j2kCKVztiPeb025wVfvDXswh1VsysBjrXvUxNnVrSVGSqNL+AOAWvKUDwqa3nmwnQoCs9JXDFV6Dz4zr/KnQRc7FolqXKzL3wm+94H3wgWA16a+6L0YA05xJv7sU5x1DfbYAver8KlbLbmK6IuVjoez+5+1ITZHx4I4vs80zDkVE2Dhe8X/xhKC415RE7GjAWgW8qiLBbYgrXiVF3gnRTanYbKu7nKg5oDd9PP+h3wMc8pGsdy28Jn3DRZlVvE0OHQ73W7X98eB3zkRkMRHLGd+xy2ZMgbDJr5kQ3TZmqgwtLltQ6wc/VHnC1MMBDB22Z+IpYB+txMCZCFN13ojA55FFlz509J3v+fPDtFCLlA7nECUYZRHfhD7hXc3ppkoQ4AoeUqI5hZGbBWBXYny8+MgEUHWed3rrrdHigm8QU+sxIy8GoF8YC9kBDXWA3ZBYlTtC2zYXCRoHc+WGZAyoI+Sx4aEz8lf2QkAJbcGTOO62Uneo1ktP+N6g95rKDSHPWQzD5B50B/vEZQB0417D6UcoPsppMhgtoJMAoFMWIjJtWzE0UOESTrjK5HdKOKLy8HIZf93UhUxRb/yKYODqHV0qCvyJEQXKjtsucJM9KPLT0xrcwJW4+heHQy+HfWIbrImQ9yIIR9IOaGhJe8xZosBCMJdCiGO0lu/gh+/z05RTNMP+1tS81646Qj9cONeRBVGsdH2tBDpvRS1UYwFot1kGRYAI3H58ZEtSngRkvUSm3gvj5EOdnLI4IX/w/IZQ8hmROSH3W8qAr9i+p/jV0ma5AAeg3eUlABPox7v0g5qsAATVLhEp7AfgEjOAqEVuij+R2BeRxRgW/LpuAk9ooVnhYQ4hMAS6tAdroP+KFyfLxQ7Ze+GEEGJX5Vguls3TOI9ho0cADFPP0HmCQGyvrf71X6yHIK87eZYSo97wSpCIE8S78QatNn7QV/vC6yOrukDCbE+VEIf0JM/lYLdG/W2GKmhoueczN90h1R/ByR15yMCmme3noFQzkxue0ijBl86RadhNreQYOGAMt9kNHHTOUDoKVGxO4fWCaqawFqqCDxNCRNQlZELTtR16bliSdk/GBNCAF0mtqrHCL4/ubdNXzy8DLi3ylyr8w2nzxuPb/w6CCfL0zoVmsyooa8JXdyGVBION20CVD++X47RAkFcL7NhCBtpjWKuFe2nqK2BHzHJoyKy74WvpM2T5pT9A0SsCv2VsrqJ1IP0GYLdnqP4go6xgrN7Me4kEbCLVHTunTEUf+fibel8tvc0NenxW8wYifGeynqBmZynENzzVP1vnsoiqOgP9c+udFma1YQ9CfaaXC9aCHMl5ykkv1P8ucLUMssMoyfEi7Lb3merbfYuQNmSNGWvkcsvFMdDZb4StE/f07R3AjhjnOJXVnjo8PbsRecrEtU8tSC6ZYZstjRDgyBy2k8mO0DzcdU3+IMxfMexSkru9lrcBkdVIpWJyaKbzAy1ssAjMJ1KK8dgKxKHxRXi6Q8J6aIsz7CZI6fIpAruC1MVCrbIdZcWTfqZUCJBuzDrIA3CUx1+jKE6t/MyzW9bfI7hckWcC9NA7Ez8RFR6/d7WwfXCOHrgybu+Ks42FNkl7dZjLQZfjHgT4GIr+o4gdm+mZ0qRMWg61+NLojRzIeZdda/uVf+5UxYQhrAsSnMHMtpw48JnuSy3EGfTtXc7v2ZraHbPCSfGcDNqlenbxiXz9yNWCCqnOXdzhWkN8xalyMV/v3iNhHF3X+gDVT5xoAXj3y/EExsD9DJXXoqaJHOVewJx0F7m8G02YIXdBJ+NczN55DKlwnuBUJr6RhjGcxCkd54IxZE/6Pwkiji76OLyGwukSiMwUqTo8bvEGQoGW1Apmv+Tp6RnQC58sYptBQjTu9OjCd+RzxSY3jrOFZaU/KxoM+2gAy+z9pCdzgyUWnIWORrII3aA5pWuYxcIFIsyAlLLOCuCuHkLRppLOFWKF+gYiFJ5QBPiybyxUDH4JNyrpoDO9Zy3QvfSoZQMrcJSfQoOSCWhe+ldaa94YP9Em40jwfCzYGXP1dJOE8Ri2roGluIZyOjQTGr30i2Y0zmoaWmz0cPoXBK4OGniOXX7x5z0XSVjdXHCMqmi4hZ4Wfoyw7NTzJlVs6PRZ1AiPEYXbTZI/RuvEWSA4ceepgv8oEy0ykzMbL1zEHZulA5B4gDswuVPWPqWBiuknytLheLULDKi+A//SwW27g/iYaVB1fd/tkdMES/ecxwSw3F4GR+i+Hia96o3jB9gJucqsxhJWUtliusxbNLZ7+luEUTfN2N/9mjsd9er1URgv/rp9MJx/7ao6F2ysTcgd60kySBgyi9OV8s0s8ogGnafaEptfmCWn2bnpI6oMYbqKS4ZcQkB2pYJi/rw/CXNVy9gGQHvpx4MKFFUT4b3lbNCCXYm4YMjaR9ORU0DVaTGk1kS9IpoXLcQgBGVIbOGLO1gdSyEhvkAHhWZb1XF8yQSvzzTqWiisekKdp9hzdhR359HuLS0xkGagabq6cCrEsSzXZkZyi0U9D3phr8ITCa4bF43dKSoouQWoLm6hKdV09XeS9Ycs0VFrBcSgBGwjov9T9cPZrPp1E7Q78/G4aHzs18OoYvKar/S6YBX2iuaarKtxOY3iP7nDTNU1H4xDe+6CNEECLmY2QBOaUWYmgc06unC+aBZOKBJP4ZHMAgXuK6tfRPQQdY8Iyy9rRbLy0cBXgLbP1UU4dUGAdSa56xO39Fe4FsICgSfkfsgSwIQWXTz9QCjnatdFdXczvlc2OFqxwTjLY+iAlwwUbDtFnfFTM969IeUed2vxshfLS9UCMk7iAofioJo2yn1M/pbXR9BWu6PvgNc0e2XFnZ5LXDiOsEEwofiW6H4b8PTvBtMK9RbsMjww9bf2cUvYU9nYa/7M5+cTl/L5XLH/lsuTufJat07hKMqZgKbzsXV+bmXv1DK9zR4/sLVPDRmDC7/4Pg1BtM9SFOwENDhzxtq2U1htt65ih4BLth1jO/JexW8WXeRBOlgImNP6+CFxUNet5cgDgMF6/IoWSNs/P3lv/+u3GylFMDhbrvqjV+tGuz/QIK4IcKaYnQ895q6vDkMPOF3MGxs+01FX7ZM88Yd03i6htkiLrXO67D/rkq0Z6KMoTS5EBh+zTvh6K+U9jZCJUPN/nIpdY5f794n0RS/MFRUnX+14di9DDPbXf8p3GAIMzAfkDaEaoaXYQbWm9uvNkYlQ0OJoNejZfjv4/0MvcispVqX4eZwiuNKXney2018za4bHVb7CTOBKi0gOzh0VvN1NkkcOsBsEX8dhoPgc4hAvDmhxzuBQCJr4Ed7yONx3ARCw07JqExXwzi6w2M5l4kvWHo+Dyoio57+/Qz9LyQip6LI6JyEq5PCP3tLSSY8kVee/UUmRcqMXgqXyyON/UbHZOeI+xl25KZg72OZHJXsEgkLKUIcZebqujSdJQOTjkmb936GozTLgDYLeZAI5fZKCm2T3fcxzr8VG1c143otQ0/6VUuZexN9Fw+llcRQtezb/1akCk0GvWtIGrlBWO3Sjz60QgP+D/pqTCs5Q/2AkpA5xI7JcuhKhk7HU7C5KFgU1pKoC1fbMR2wXEQqJQgSb0SRIuiy+7a0rVJDi1KyM5u1qLa8CVC48nUyyTRJ4OF7volW7cpAcy5Y+yoxH68uX+2cXogI4mgp5/vF9jzTHXju8w9FHchapb4hXfjTaXDi35SQz5+WH8jysXjr9lf6V1WdO0lPMipE6zNUP0G1cLpK/qT/pLYTiS6+6Q30Cms5s5t+psAMw56aXErZfafPqhXBn9NRcz61lmj6/kM5HV7QHrIJQ6y010bt3VcWquygxXcCzKShoAlMeYSRqtnHGSKVclDjqjXOU9MUbT7GuHiWov2CrbMPMpTyNbPdRlWqh9oYaltt5Ri+lWFBW5QxVG1C9OpwWVHN1p5ah5oJIddhrRbgT2ZIzr2uhHCHShh6qupOV9vSNmAEBlKWRuoAqL2CtzEsWm0lDFVLt0ybITV3T+L7M8khcpi3yigwX3D5GEM5BbM7pmSzPq4ke8qmWQbMhtn4R0nQbD/vZzAc/cYw+kgL8cWQYkCInsp/xdcUHmM4Vl2lyhlyO2YsG4jlUaOddnMYHkNhyh0qtr+9JtnztHWoSxrJMPlMxtjCJRzR10saexqRpUpbpAmrwzJHD4IXVObHz/gQQ08VaevPK81xJ+1JbHeHKWkRcaRP3cxxE48x1Gwavce6sgNi12Fzosm5zLGc729FjZ+PBxkq3a59bcRTlrewRX0ZtwCR+Y8F5PEgQ+VbROrAkVqdfCrOpLZ4Sx75QYal/mHO71eb4u7/hskT8SDDUh9fWaJc/Mg4K1+sYTiezWb96Qu/CvYow152vDhUjynRc8PW4sEOxtjluxgwuGTyVgbxKMOB8nbTbIySryJEYZdXd0CCX9Mn8lGGH13lOpx5qmIUKV0RB9KqOy6DywsqTB9mqLd2Q8fdUMW80y5opZ18koF8QUNoJQxJQ4bTirSEIx2HXZlVmpxgGbdN1RceLg0ZZjIvCnqji7XFRIuTFvZnDitpU/FkyFBYorIbMORf5SgQBNl+LNOwO98ulrsoii6QYm1rnPGot4rrxZOqCcOP0SUnLyG99ck4e/zplIewTEDG9ZLoc4c6MYqNqno02X1f8lHBtR6bIO6vu0Q8aSkY7/m5y9kkwXwVY17IWobnePf9pKwVq9dbOhRj3ncAbnV+43VHYJ19LbLLlulg1FS5AQ+vB68f+gc/mGalY5R8Oemau34kx9ysNP3K5vqejzQKoH2rJMZJxnKMGm89NYSG4npSG5HcUKWWjlmNGKh+wZGhW0iGuXYCI9f0nTnGqszFWHRd2kzZr9N60tYz6RVrhT4lXZyfhIEqzVio4ExgSX1osH/yXhHEBneKb7UNXYtOOB6HvflQM1RNfmtV3gab+2Ztpucy48j8X2ahakaea9Kkib+Kyywss83gJ+UecAwTXdo0iNaWjmM6//Nd3QnNMfdR5xg/roP2xqMlg2WVC+wujXuH58lLNqquyxraQfAHvsjyNNifxM10ZiCAXtav+qbcixD8LIHrIsycD9cli/Vb+pcbhz3tB+Nxf/pneii0aNGiRYsWLVq0aNGiRYsWLVq0aNGiRYsWLVq0aNGixZ/G/wFjAfRPVOhZ4gAAAABJRU5ErkJggg==;fontSize=16;strokeColor=#6666FF;" vertex="1" parent="1">
          <mxGeometry x="1170" y="148" width="50" height="50" as="geometry" />
        </mxCell>
        <mxCell id="Jl1QDGb4fc3AQuvFbjfJ-93" value="Generate SEP Build" style="rounded=0;whiteSpace=wrap;html=1;fontSize=16;strokeColor=#6c8ebf;fillColor=#dae8fc;" vertex="1" parent="1">
          <mxGeometry x="970" y="226" width="260" height="37" as="geometry" />
        </mxCell>
        <mxCell id="Jl1QDGb4fc3AQuvFbjfJ-94" value="Prerequisite QT Check" style="rounded=0;whiteSpace=wrap;html=1;fontSize=16;strokeColor=#6c8ebf;fillColor=#dae8fc;" vertex="1" parent="1">
          <mxGeometry x="970" y="289" width="260" height="37" as="geometry" />
        </mxCell>
        <mxCell id="Jl1QDGb4fc3AQuvFbjfJ-95" value="QT" style="rounded=0;whiteSpace=wrap;html=1;fontSize=16;strokeColor=#82b366;fillColor=#d5e8d4;" vertex="1" parent="1">
          <mxGeometry x="970" y="353" width="260" height="37" as="geometry" />
        </mxCell>
        <mxCell id="Jl1QDGb4fc3AQuvFbjfJ-96" value="" style="endArrow=classic;html=1;fontSize=16;exitX=0.5;exitY=0;exitDx=0;exitDy=0;strokeColor=#6666FF;" edge="1" parent="1" source="Jl1QDGb4fc3AQuvFbjfJ-66">
          <mxGeometry width="50" height="50" relative="1" as="geometry">
            <mxPoint x="970" y="240" as="sourcePoint" />
            <mxPoint x="1100" y="60" as="targetPoint" />
            <Array as="points">
              <mxPoint x="830" y="20" />
              <mxPoint x="1100" y="20" />
            </Array>
          </mxGeometry>
        </mxCell>
        <mxCell id="Jl1QDGb4fc3AQuvFbjfJ-97" value="" style="endArrow=classic;html=1;fontSize=16;strokeColor=#6666FF;" edge="1" parent="1">
          <mxGeometry width="50" height="50" relative="1" as="geometry">
            <mxPoint x="1101" y="100" as="sourcePoint" />
            <mxPoint x="1101" y="132" as="targetPoint" />
          </mxGeometry>
        </mxCell>
        <mxCell id="Jl1QDGb4fc3AQuvFbjfJ-99" value="" style="endArrow=classic;html=1;fontSize=16;strokeColor=#6666FF;exitX=0.5;exitY=1;exitDx=0;exitDy=0;entryX=0.5;entryY=0;entryDx=0;entryDy=0;" edge="1" parent="1" source="Jl1QDGb4fc3AQuvFbjfJ-90" target="Jl1QDGb4fc3AQuvFbjfJ-93">
          <mxGeometry width="50" height="50" relative="1" as="geometry">
            <mxPoint x="960" y="280" as="sourcePoint" />
            <mxPoint x="1010" y="230" as="targetPoint" />
          </mxGeometry>
        </mxCell>
        <mxCell id="Jl1QDGb4fc3AQuvFbjfJ-100" value="" style="endArrow=classic;html=1;fontSize=16;strokeColor=#6666FF;entryX=0.5;entryY=0;entryDx=0;entryDy=0;exitX=0.5;exitY=1;exitDx=0;exitDy=0;" edge="1" parent="1" source="Jl1QDGb4fc3AQuvFbjfJ-93" target="Jl1QDGb4fc3AQuvFbjfJ-94">
          <mxGeometry width="50" height="50" relative="1" as="geometry">
            <mxPoint x="960" y="280" as="sourcePoint" />
            <mxPoint x="1010" y="230" as="targetPoint" />
          </mxGeometry>
        </mxCell>
        <mxCell id="Jl1QDGb4fc3AQuvFbjfJ-101" value="" style="endArrow=classic;html=1;fontSize=16;strokeColor=#6666FF;exitX=0.5;exitY=1;exitDx=0;exitDy=0;" edge="1" parent="1" source="Jl1QDGb4fc3AQuvFbjfJ-94">
          <mxGeometry width="50" height="50" relative="1" as="geometry">
            <mxPoint x="1040" y="280" as="sourcePoint" />
            <mxPoint x="1100" y="350" as="targetPoint" />
          </mxGeometry>
        </mxCell>
        <mxCell id="Jl1QDGb4fc3AQuvFbjfJ-102" value="Prerequisite CIT/CRT Check" style="rounded=0;whiteSpace=wrap;html=1;fontSize=16;strokeColor=#6c8ebf;fillColor=#dae8fc;" vertex="1" parent="1">
          <mxGeometry x="1340" y="206" width="260" height="37" as="geometry" />
        </mxCell>
        <mxCell id="Jl1QDGb4fc3AQuvFbjfJ-103" value="" style="endArrow=classic;html=1;fontSize=16;strokeColor=#6666FF;exitX=1;exitY=0.5;exitDx=0;exitDy=0;" edge="1" parent="1" source="Jl1QDGb4fc3AQuvFbjfJ-95">
          <mxGeometry width="50" height="50" relative="1" as="geometry">
            <mxPoint x="1380" y="180" as="sourcePoint" />
            <mxPoint x="1340" y="230" as="targetPoint" />
            <Array as="points">
              <mxPoint x="1290" y="372" />
              <mxPoint x="1290" y="230" />
            </Array>
          </mxGeometry>
        </mxCell>
        <mxCell id="Jl1QDGb4fc3AQuvFbjfJ-104" value="" style="rounded=0;whiteSpace=wrap;html=1;fontSize=16;strokeColor=#6c8ebf;fillColor=#dae8fc;" vertex="1" parent="1">
          <mxGeometry x="1730" y="55" width="280" height="105" as="geometry" />
        </mxCell>
        <mxCell id="Jl1QDGb4fc3AQuvFbjfJ-105" value="CIT" style="rounded=0;whiteSpace=wrap;html=1;fontSize=16;strokeColor=#d6b656;fillColor=#fff2cc;" vertex="1" parent="1">
          <mxGeometry x="1750" y="96.73" width="60" height="36.54" as="geometry" />
        </mxCell>
        <mxCell id="Jl1QDGb4fc3AQuvFbjfJ-106" value="CRT" style="rounded=0;whiteSpace=wrap;html=1;fontSize=16;strokeColor=#82b366;fillColor=#d5e8d4;" vertex="1" parent="1">
          <mxGeometry x="1910" y="96.73" width="70" height="36.54" as="geometry" />
        </mxCell>
        <mxCell id="Jl1QDGb4fc3AQuvFbjfJ-107" value="2" style="ellipse;whiteSpace=wrap;html=1;aspect=fixed;fontSize=16;strokeColor=#d6b656;fillColor=#fff2cc;" vertex="1" parent="1">
          <mxGeometry x="1750" y="59.92" width="30" height="30" as="geometry" />
        </mxCell>
        <mxCell id="Jl1QDGb4fc3AQuvFbjfJ-108" value="3" style="ellipse;whiteSpace=wrap;html=1;aspect=fixed;fontSize=16;strokeColor=#d6b656;fillColor=#fff2cc;" vertex="1" parent="1">
          <mxGeometry x="1950" y="59.92" width="30" height="30" as="geometry" />
        </mxCell>
        <mxCell id="Jl1QDGb4fc3AQuvFbjfJ-110" value="Functional Test" style="text;html=1;strokeColor=none;fillColor=none;align=center;verticalAlign=middle;whiteSpace=wrap;rounded=0;fontSize=16;" vertex="1" parent="1">
          <mxGeometry x="1810" y="64.92" width="110" height="20" as="geometry" />
        </mxCell>
        <mxCell id="Jl1QDGb4fc3AQuvFbjfJ-112" value="" style="rounded=0;whiteSpace=wrap;html=1;fontSize=16;strokeColor=#6c8ebf;fillColor=#dae8fc;" vertex="1" parent="1">
          <mxGeometry x="1730" y="305" width="280" height="120" as="geometry" />
        </mxCell>
        <mxCell id="Jl1QDGb4fc3AQuvFbjfJ-113" value="Functional Test" style="text;html=1;strokeColor=none;fillColor=none;align=center;verticalAlign=middle;whiteSpace=wrap;rounded=0;fontSize=16;" vertex="1" parent="1">
          <mxGeometry x="1815" y="330" width="110" height="20" as="geometry" />
        </mxCell>
        <mxCell id="Jl1QDGb4fc3AQuvFbjfJ-114" value="2" style="ellipse;whiteSpace=wrap;html=1;aspect=fixed;fontSize=16;strokeColor=#d6b656;fillColor=#fff2cc;" vertex="1" parent="1">
          <mxGeometry x="1750" y="320" width="30" height="30" as="geometry" />
        </mxCell>
        <mxCell id="Jl1QDGb4fc3AQuvFbjfJ-116" value="CIT" style="rounded=0;whiteSpace=wrap;html=1;fontSize=16;strokeColor=#d6b656;fillColor=#fff2cc;" vertex="1" parent="1">
          <mxGeometry x="1750" y="360.46000000000004" width="60" height="36.54" as="geometry" />
        </mxCell>
        <mxCell id="Jl1QDGb4fc3AQuvFbjfJ-118" value="CRT" style="rounded=0;whiteSpace=wrap;html=1;fontSize=16;strokeColor=#82b366;fillColor=#d5e8d4;" vertex="1" parent="1">
          <mxGeometry x="1910" y="363.46000000000004" width="70" height="36.54" as="geometry" />
        </mxCell>
        <mxCell id="Jl1QDGb4fc3AQuvFbjfJ-119" value="3" style="ellipse;whiteSpace=wrap;html=1;aspect=fixed;fontSize=16;strokeColor=#d6b656;fillColor=#fff2cc;" vertex="1" parent="1">
          <mxGeometry x="1950" y="323" width="30" height="30" as="geometry" />
        </mxCell>
        <mxCell id="Jl1QDGb4fc3AQuvFbjfJ-120" value="Stop and Fix if QT/CIT Fails" style="rounded=0;whiteSpace=wrap;html=1;fontSize=16;strokeColor=#b85450;fillColor=#f8cecc;" vertex="1" parent="1">
          <mxGeometry x="1790" y="206" width="120" height="60" as="geometry" />
        </mxCell>
        <mxCell id="Jl1QDGb4fc3AQuvFbjfJ-121" value="" style="endArrow=classic;html=1;fontSize=16;strokeColor=#6666FF;exitX=1;exitY=0.5;exitDx=0;exitDy=0;" edge="1" parent="1" source="Jl1QDGb4fc3AQuvFbjfJ-105">
          <mxGeometry width="50" height="50" relative="1" as="geometry">
            <mxPoint x="1570" y="240" as="sourcePoint" />
            <mxPoint x="1910" y="115" as="targetPoint" />
          </mxGeometry>
        </mxCell>
        <mxCell id="Jl1QDGb4fc3AQuvFbjfJ-122" value="" style="endArrow=classic;html=1;fontSize=16;strokeColor=#6666FF;entryX=0;entryY=0.5;entryDx=0;entryDy=0;" edge="1" parent="1" target="Jl1QDGb4fc3AQuvFbjfJ-118">
          <mxGeometry width="50" height="50" relative="1" as="geometry">
            <mxPoint x="1810" y="382" as="sourcePoint" />
            <mxPoint x="1620" y="190" as="targetPoint" />
          </mxGeometry>
        </mxCell>
        <mxCell id="Jl1QDGb4fc3AQuvFbjfJ-123" value="" style="endArrow=classic;startArrow=classic;html=1;fontSize=16;strokeColor=#6666FF;entryX=0;entryY=0.5;entryDx=0;entryDy=0;exitX=-0.007;exitY=0.65;exitDx=0;exitDy=0;exitPerimeter=0;" edge="1" parent="1" source="Jl1QDGb4fc3AQuvFbjfJ-112" target="Jl1QDGb4fc3AQuvFbjfJ-104">
          <mxGeometry width="50" height="50" relative="1" as="geometry">
            <mxPoint x="1570" y="240" as="sourcePoint" />
            <mxPoint x="1620" y="190" as="targetPoint" />
            <Array as="points">
              <mxPoint x="1680" y="383" />
              <mxPoint x="1680" y="108" />
            </Array>
          </mxGeometry>
        </mxCell>
        <mxCell id="Jl1QDGb4fc3AQuvFbjfJ-124" value="" style="endArrow=classic;html=1;fontSize=16;strokeColor=#6666FF;" edge="1" parent="1">
          <mxGeometry width="50" height="50" relative="1" as="geometry">
            <mxPoint x="1600" y="225" as="sourcePoint" />
            <mxPoint x="1680" y="225" as="targetPoint" />
          </mxGeometry>
        </mxCell>
        <mxCell id="Jl1QDGb4fc3AQuvFbjfJ-125" value="" style="endArrow=classic;startArrow=classic;html=1;fontSize=16;strokeColor=#6666FF;entryX=1;entryY=0.5;entryDx=0;entryDy=0;exitX=1.005;exitY=0.656;exitDx=0;exitDy=0;exitPerimeter=0;" edge="1" parent="1" source="Jl1QDGb4fc3AQuvFbjfJ-112" target="Jl1QDGb4fc3AQuvFbjfJ-104">
          <mxGeometry width="50" height="50" relative="1" as="geometry">
            <mxPoint x="1910" y="240" as="sourcePoint" />
            <mxPoint x="1960" y="190" as="targetPoint" />
            <Array as="points">
              <mxPoint x="2060" y="384" />
              <mxPoint x="2060" y="240" />
              <mxPoint x="2060" y="108" />
            </Array>
          </mxGeometry>
        </mxCell>
        <mxCell id="Jl1QDGb4fc3AQuvFbjfJ-126" value="1" style="ellipse;whiteSpace=wrap;html=1;aspect=fixed;fontSize=16;strokeColor=#d6b656;fillColor=#fff2cc;" vertex="1" parent="1">
          <mxGeometry x="1190" y="356.5" width="30" height="30" as="geometry" />
        </mxCell>
        <mxCell id="Jl1QDGb4fc3AQuvFbjfJ-128" value="COOP Dash Board" style="ellipse;whiteSpace=wrap;html=1;fontSize=16;strokeColor=#0e8088;fillColor=#b0e3e6;" vertex="1" parent="1">
          <mxGeometry x="970" y="440" width="260" height="80" as="geometry" />
        </mxCell>
        <mxCell id="Jl1QDGb4fc3AQuvFbjfJ-129" value="" style="endArrow=classic;html=1;fontSize=16;strokeColor=#6666FF;entryX=0.5;entryY=0;entryDx=0;entryDy=0;exitX=0.5;exitY=1;exitDx=0;exitDy=0;" edge="1" parent="1" source="Jl1QDGb4fc3AQuvFbjfJ-95" target="Jl1QDGb4fc3AQuvFbjfJ-128">
          <mxGeometry width="50" height="50" relative="1" as="geometry">
            <mxPoint x="940" y="460" as="sourcePoint" />
            <mxPoint x="990" y="410" as="targetPoint" />
          </mxGeometry>
        </mxCell>
        <mxCell id="Jl1QDGb4fc3AQuvFbjfJ-130" value="" style="endArrow=classic;html=1;fontSize=16;strokeColor=#6666FF;entryX=0;entryY=0.5;entryDx=0;entryDy=0;entryPerimeter=0;exitX=0.5;exitY=1;exitDx=0;exitDy=0;" edge="1" parent="1" source="Jl1QDGb4fc3AQuvFbjfJ-16" target="Jl1QDGb4fc3AQuvFbjfJ-128">
          <mxGeometry width="50" height="50" relative="1" as="geometry">
            <mxPoint x="730" y="460" as="sourcePoint" />
            <mxPoint x="780" y="410" as="targetPoint" />
            <Array as="points">
              <mxPoint x="480" y="480" />
            </Array>
          </mxGeometry>
        </mxCell>
        <mxCell id="Jl1QDGb4fc3AQuvFbjfJ-132" value="" style="rounded=0;whiteSpace=wrap;html=1;fontSize=16;strokeColor=#6c8ebf;fillColor=#dae8fc;" vertex="1" parent="1">
          <mxGeometry x="1730" y="540" width="280" height="130" as="geometry" />
        </mxCell>
        <mxCell id="Jl1QDGb4fc3AQuvFbjfJ-133" value="PET&lt;br&gt;48 hrs run" style="rounded=0;whiteSpace=wrap;html=1;fontSize=16;strokeColor=#56517e;fillColor=#d0cee2;" vertex="1" parent="1">
          <mxGeometry x="1770" y="575" width="210" height="60" as="geometry" />
        </mxCell>
        <mxCell id="Jl1QDGb4fc3AQuvFbjfJ-134" value="CST by GS" style="rounded=0;whiteSpace=wrap;html=1;fontSize=16;strokeColor=#d6b656;fillColor=#fff2cc;" vertex="1" parent="1">
          <mxGeometry x="1730" y="710" width="280" height="130" as="geometry" />
        </mxCell>
        <mxCell id="Jl1QDGb4fc3AQuvFbjfJ-135" value="CST by GS" style="rounded=0;whiteSpace=wrap;html=1;fontSize=16;strokeColor=#6c8ebf;fillColor=#dae8fc;" vertex="1" parent="1">
          <mxGeometry x="1730" y="885" width="280" height="130" as="geometry" />
        </mxCell>
        <mxCell id="Jl1QDGb4fc3AQuvFbjfJ-136" value="Security Test" style="rounded=0;whiteSpace=wrap;html=1;fontSize=16;strokeColor=#56517e;fillColor=#d0cee2;" vertex="1" parent="1">
          <mxGeometry x="1770" y="920" width="210" height="60" as="geometry" />
        </mxCell>
        <mxCell id="Jl1QDGb4fc3AQuvFbjfJ-137" value="&lt;span style=&quot;color: rgba(0 , 0 , 0 , 0) ; font-family: monospace ; font-size: 0px&quot;&gt;%3CmxGraphModel%3E%3Croot%3E%3CmxCell%20id%3D%220%22%2F%3E%3CmxCell%20id%3D%221%22%20parent%3D%220%22%2F%3E%3CmxCell%20id%3D%222%22%20value%3D%22Security%20Test%22%20style%3D%22rounded%3D0%3BwhiteSpace%3Dwrap%3Bhtml%3D1%3BfontSize%3D16%3BstrokeColor%3D%2356517e%3BfillColor%3D%23d0cee2%3B%22%20vertex%3D%221%22%20parent%3D%221%22%3E%3CmxGeometry%20x%3D%221770%22%20y%3D%22920%22%20width%3D%22210%22%20height%3D%2260%22%20as%3D%22geometry%22%2F%3E%3C%2FmxCell%3E%3C%2Froot%3E%3C%2FmxGraphModel%3E&lt;/span&gt;" style="rounded=0;whiteSpace=wrap;html=1;fontSize=16;strokeColor=#6c8ebf;fillColor=#dae8fc;" vertex="1" parent="1">
          <mxGeometry x="1730" y="1065" width="280" height="130" as="geometry" />
        </mxCell>
        <mxCell id="Jl1QDGb4fc3AQuvFbjfJ-138" value="UUF" style="rounded=0;whiteSpace=wrap;html=1;fontSize=16;strokeColor=#56517e;fillColor=#d0cee2;" vertex="1" parent="1">
          <mxGeometry x="1770" y="1100" width="210" height="60" as="geometry" />
        </mxCell>
        <mxCell id="Jl1QDGb4fc3AQuvFbjfJ-139" value="" style="endArrow=classic;startArrow=classic;html=1;fontSize=16;strokeColor=#6666FF;exitX=1;exitY=0.5;exitDx=0;exitDy=0;" edge="1" parent="1" source="Jl1QDGb4fc3AQuvFbjfJ-137">
          <mxGeometry width="50" height="50" relative="1" as="geometry">
            <mxPoint x="1910" y="870" as="sourcePoint" />
            <mxPoint x="2010" y="610" as="targetPoint" />
            <Array as="points">
              <mxPoint x="2060" y="1130" />
              <mxPoint x="2060" y="860" />
              <mxPoint x="2060" y="610" />
            </Array>
          </mxGeometry>
        </mxCell>
        <mxCell id="Jl1QDGb4fc3AQuvFbjfJ-140" value="" style="endArrow=classic;html=1;fontSize=16;strokeColor=#6666FF;entryX=1;entryY=0.5;entryDx=0;entryDy=0;" edge="1" parent="1" target="Jl1QDGb4fc3AQuvFbjfJ-134">
          <mxGeometry width="50" height="50" relative="1" as="geometry">
            <mxPoint x="2060" y="775" as="sourcePoint" />
            <mxPoint x="2070" y="820" as="targetPoint" />
          </mxGeometry>
        </mxCell>
        <mxCell id="Jl1QDGb4fc3AQuvFbjfJ-141" value="" style="endArrow=classic;html=1;fontSize=16;strokeColor=#6666FF;entryX=1;entryY=0.5;entryDx=0;entryDy=0;" edge="1" parent="1" target="Jl1QDGb4fc3AQuvFbjfJ-135">
          <mxGeometry width="50" height="50" relative="1" as="geometry">
            <mxPoint x="2060" y="950" as="sourcePoint" />
            <mxPoint x="2070" y="980" as="targetPoint" />
          </mxGeometry>
        </mxCell>
        <mxCell id="Jl1QDGb4fc3AQuvFbjfJ-142" value="" style="endArrow=classic;startArrow=classic;html=1;fontSize=16;strokeColor=#6666FF;" edge="1" parent="1">
          <mxGeometry width="50" height="50" relative="1" as="geometry">
            <mxPoint x="2060" y="870" as="sourcePoint" />
            <mxPoint x="2060" y="240" as="targetPoint" />
            <Array as="points">
              <mxPoint x="2110" y="870" />
              <mxPoint x="2110" y="570" />
              <mxPoint x="2110" y="240" />
            </Array>
          </mxGeometry>
        </mxCell>
        <mxCell id="Jl1QDGb4fc3AQuvFbjfJ-143" value="" style="endArrow=classic;html=1;fontSize=16;strokeColor=#6666FF;entryX=1;entryY=0.5;entryDx=0;entryDy=0;" edge="1" parent="1" target="Jl1QDGb4fc3AQuvFbjfJ-128">
          <mxGeometry width="50" height="50" relative="1" as="geometry">
            <mxPoint x="2110" y="480" as="sourcePoint" />
            <mxPoint x="1670" y="540" as="targetPoint" />
          </mxGeometry>
        </mxCell>
        <mxCell id="Jl1QDGb4fc3AQuvFbjfJ-144" value="Release Checks" style="rounded=0;whiteSpace=wrap;html=1;fontSize=16;strokeColor=#82b366;fillColor=#d5e8d4;" vertex="1" parent="1">
          <mxGeometry x="1350" y="790" width="190" height="110" as="geometry" />
        </mxCell>
        <mxCell id="Jl1QDGb4fc3AQuvFbjfJ-145" value="" style="endArrow=classic;html=1;fontSize=16;strokeColor=#6666FF;entryX=1.005;entryY=0.55;entryDx=0;entryDy=0;entryPerimeter=0;" edge="1" parent="1" target="Jl1QDGb4fc3AQuvFbjfJ-144">
          <mxGeometry width="50" height="50" relative="1" as="geometry">
            <mxPoint x="1730" y="611" as="sourcePoint" />
            <mxPoint x="1544.75" y="850.3699999999999" as="targetPoint" />
            <Array as="points">
              <mxPoint x="1600" y="611" />
              <mxPoint x="1600" y="850" />
            </Array>
          </mxGeometry>
        </mxCell>
        <mxCell id="Jl1QDGb4fc3AQuvFbjfJ-146" value="" style="endArrow=classic;html=1;fontSize=16;strokeColor=#6666FF;entryX=1.003;entryY=0.553;entryDx=0;entryDy=0;entryPerimeter=0;exitX=-0.01;exitY=0.587;exitDx=0;exitDy=0;exitPerimeter=0;" edge="1" parent="1" target="Jl1QDGb4fc3AQuvFbjfJ-144">
          <mxGeometry width="50" height="50" relative="1" as="geometry">
            <mxPoint x="1727.1999999999998" y="782.31" as="sourcePoint" />
            <mxPoint x="1547.4099999999999" y="850.3499999999999" as="targetPoint" />
            <Array as="points">
              <mxPoint x="1640" y="782" />
              <mxPoint x="1640" y="850" />
              <mxPoint x="1550" y="851" />
            </Array>
          </mxGeometry>
        </mxCell>
        <mxCell id="Jl1QDGb4fc3AQuvFbjfJ-147" value="" style="endArrow=classic;html=1;fontSize=16;strokeColor=#6666FF;exitX=-0.007;exitY=0.579;exitDx=0;exitDy=0;exitPerimeter=0;" edge="1" parent="1" source="Jl1QDGb4fc3AQuvFbjfJ-135">
          <mxGeometry width="50" height="50" relative="1" as="geometry">
            <mxPoint x="1630" y="980" as="sourcePoint" />
            <mxPoint x="1540" y="850" as="targetPoint" />
            <Array as="points">
              <mxPoint x="1640" y="960" />
              <mxPoint x="1640" y="850" />
            </Array>
          </mxGeometry>
        </mxCell>
        <mxCell id="Jl1QDGb4fc3AQuvFbjfJ-148" value="" style="endArrow=classic;html=1;fontSize=16;strokeColor=#6666FF;exitX=-0.014;exitY=0.646;exitDx=0;exitDy=0;exitPerimeter=0;" edge="1" parent="1" source="Jl1QDGb4fc3AQuvFbjfJ-137">
          <mxGeometry width="50" height="50" relative="1" as="geometry">
            <mxPoint x="1630" y="1090" as="sourcePoint" />
            <mxPoint x="1540" y="850" as="targetPoint" />
            <Array as="points">
              <mxPoint x="1600" y="1149" />
              <mxPoint x="1600" y="850" />
            </Array>
          </mxGeometry>
        </mxCell>
        <mxCell id="Jl1QDGb4fc3AQuvFbjfJ-149" value="" style="rounded=1;whiteSpace=wrap;html=1;fontSize=16;strokeColor=#6666FF;" vertex="1" parent="1">
          <mxGeometry x="1145" y="600" width="120" height="110" as="geometry" />
        </mxCell>
        <mxCell id="Jl1QDGb4fc3AQuvFbjfJ-150" value="SWMP" style="icon;html=1;image=img/clipart/Gear_128x128.png;fontSize=16;strokeColor=#6666FF;" vertex="1" parent="1">
          <mxGeometry x="1176" y="610" width="60" height="60" as="geometry" />
        </mxCell>
        <mxCell id="Jl1QDGb4fc3AQuvFbjfJ-151" value="Digital SW Delivery" style="text;html=1;strokeColor=none;fillColor=none;align=center;verticalAlign=middle;whiteSpace=wrap;rounded=0;fontSize=16;" vertex="1" parent="1">
          <mxGeometry x="1130" y="575" width="150" height="20" as="geometry" />
        </mxCell>
        <mxCell id="Jl1QDGb4fc3AQuvFbjfJ-152" value="NEAR" style="shape=cylinder3;whiteSpace=wrap;html=1;boundedLbl=1;backgroundOutline=1;size=15;fontSize=16;strokeColor=#6666FF;" vertex="1" parent="1">
          <mxGeometry x="1147.5" y="790" width="115" height="110" as="geometry" />
        </mxCell>
        <mxCell id="Jl1QDGb4fc3AQuvFbjfJ-153" value="" style="endArrow=classic;html=1;fontSize=16;strokeColor=#6666FF;entryX=1.009;entryY=0.54;entryDx=0;entryDy=0;entryPerimeter=0;" edge="1" parent="1">
          <mxGeometry width="50" height="50" relative="1" as="geometry">
            <mxPoint x="1349" y="844" as="sourcePoint" />
            <mxPoint x="1262.4950000000001" y="844.2" as="targetPoint" />
          </mxGeometry>
        </mxCell>
        <mxCell id="Jl1QDGb4fc3AQuvFbjfJ-154" value="" style="endArrow=classic;html=1;fontSize=16;strokeColor=#6666FF;exitX=0.5;exitY=1;exitDx=0;exitDy=0;entryX=0.5;entryY=0;entryDx=0;entryDy=0;entryPerimeter=0;" edge="1" parent="1" source="Jl1QDGb4fc3AQuvFbjfJ-149" target="Jl1QDGb4fc3AQuvFbjfJ-152">
          <mxGeometry width="50" height="50" relative="1" as="geometry">
            <mxPoint x="1240" y="720" as="sourcePoint" />
            <mxPoint x="1290" y="670" as="targetPoint" />
          </mxGeometry>
        </mxCell>
        <mxCell id="Jl1QDGb4fc3AQuvFbjfJ-155" value="" style="rounded=0;whiteSpace=wrap;html=1;fontSize=16;strokeColor=#6c8ebf;fillColor=#dae8fc;" vertex="1" parent="1">
          <mxGeometry x="300" y="600" width="640" height="520" as="geometry" />
        </mxCell>
        <mxCell id="Jl1QDGb4fc3AQuvFbjfJ-156" value="" style="rounded=1;whiteSpace=wrap;html=1;fontSize=16;strokeColor=#666666;fillColor=#f5f5f5;fontColor=#333333;" vertex="1" parent="1">
          <mxGeometry x="330" y="680" width="260" height="410" as="geometry" />
        </mxCell>
        <mxCell id="Jl1QDGb4fc3AQuvFbjfJ-157" value="" style="html=1;dashed=0;whitespace=wrap;fillColor=#2875E2;strokeColor=#ffffff;points=[[0.005,0.63,0],[0.1,0.2,0],[0.9,0.2,0],[0.5,0,0],[0.995,0.63,0],[0.72,0.99,0],[0.5,1,0],[0.28,0.99,0]];shape=mxgraph.kubernetes.icon;prIcon=svc;fontSize=16;" vertex="1" parent="1">
          <mxGeometry x="386" y="840" width="144" height="140" as="geometry" />
        </mxCell>
        <mxCell id="Jl1QDGb4fc3AQuvFbjfJ-158" value="Production /Live" style="text;html=1;strokeColor=none;fillColor=none;align=center;verticalAlign=middle;whiteSpace=wrap;rounded=0;fontSize=16;" vertex="1" parent="1">
          <mxGeometry x="378" y="710" width="160" height="50" as="geometry" />
        </mxCell>
        <mxCell id="Jl1QDGb4fc3AQuvFbjfJ-159" value="" style="rounded=1;whiteSpace=wrap;html=1;fontSize=16;strokeColor=#666666;fillColor=#f5f5f5;fontColor=#333333;" vertex="1" parent="1">
          <mxGeometry x="650" y="680" width="260" height="410" as="geometry" />
        </mxCell>
        <mxCell id="Jl1QDGb4fc3AQuvFbjfJ-160" value="" style="html=1;dashed=0;whitespace=wrap;fillColor=#2875E2;strokeColor=#ffffff;points=[[0.005,0.63,0],[0.1,0.2,0],[0.9,0.2,0],[0.5,0,0],[0.995,0.63,0],[0.72,0.99,0],[0.5,1,0],[0.28,0.99,0]];shape=mxgraph.kubernetes.icon;prIcon=svc;fontSize=16;" vertex="1" parent="1">
          <mxGeometry x="670" y="840" width="144" height="140" as="geometry" />
        </mxCell>
        <mxCell id="Jl1QDGb4fc3AQuvFbjfJ-161" value="SEP" style="text;html=1;strokeColor=none;fillColor=none;align=center;verticalAlign=middle;whiteSpace=wrap;rounded=0;fontSize=16;" vertex="1" parent="1">
          <mxGeometry x="440" y="995" width="40" height="20" as="geometry" />
        </mxCell>
        <mxCell id="Jl1QDGb4fc3AQuvFbjfJ-162" value="SEP" style="text;html=1;strokeColor=none;fillColor=none;align=center;verticalAlign=middle;whiteSpace=wrap;rounded=0;fontSize=16;" vertex="1" parent="1">
          <mxGeometry x="722" y="995" width="40" height="20" as="geometry" />
        </mxCell>
        <mxCell id="Jl1QDGb4fc3AQuvFbjfJ-163" value="BFAT" style="icon;html=1;image=img/clipart/Gear_128x128.png;fontSize=16;strokeColor=#6666FF;" vertex="1" parent="1">
          <mxGeometry x="814" y="980" width="60" height="55" as="geometry" />
        </mxCell>
        <mxCell id="Jl1QDGb4fc3AQuvFbjfJ-166" style="edgeStyle=orthogonalEdgeStyle;rounded=0;orthogonalLoop=1;jettySize=auto;html=1;exitX=0.5;exitY=1;exitDx=0;exitDy=0;fontSize=16;strokeColor=#6666FF;" edge="1" parent="1" source="Jl1QDGb4fc3AQuvFbjfJ-163" target="Jl1QDGb4fc3AQuvFbjfJ-163">
          <mxGeometry relative="1" as="geometry" />
        </mxCell>
        <mxCell id="Jl1QDGb4fc3AQuvFbjfJ-167" value="Customer Lab" style="text;html=1;strokeColor=none;fillColor=none;align=center;verticalAlign=middle;whiteSpace=wrap;rounded=0;fontSize=16;" vertex="1" parent="1">
          <mxGeometry x="710" y="710" width="160" height="50" as="geometry" />
        </mxCell>
        <mxCell id="Jl1QDGb4fc3AQuvFbjfJ-168" value="NDAP" style="icon;html=1;image=img/clipart/Gear_128x128.png;fontSize=16;strokeColor=#6666FF;" vertex="1" parent="1">
          <mxGeometry x="814" y="770" width="60" height="55" as="geometry" />
        </mxCell>
        <mxCell id="Jl1QDGb4fc3AQuvFbjfJ-169" value="" style="endArrow=classic;html=1;fontSize=16;strokeColor=#6666FF;entryX=1;entryY=0.561;entryDx=0;entryDy=0;entryPerimeter=0;" edge="1" parent="1" target="Jl1QDGb4fc3AQuvFbjfJ-156">
          <mxGeometry width="50" height="50" relative="1" as="geometry">
            <mxPoint x="650" y="910" as="sourcePoint" />
            <mxPoint x="1070" y="1040" as="targetPoint" />
          </mxGeometry>
        </mxCell>
      </root>
    </mxGraphModel>
  </diagram>
</mxfile>
